<?xml version="1.0" encoding="UTF-8" standalone="no"?>
<!-- Created with Inkscape (http://www.inkscape.org/) -->

<svg
   width="209.57701mm"
   height="185.30888mm"
   viewBox="0 0 209.57701 185.30888"
   version="1.1"
   id="svg1"
   sodipodi:docname="logomonocvromaticacisalv.svg"
   inkscape:version="1.3.2 (091e20ef0f, 2023-11-25)"
   xmlns:inkscape="http://www.inkscape.org/namespaces/inkscape"
   xmlns:sodipodi="http://sodipodi.sourceforge.net/DTD/sodipodi-0.dtd"
   xmlns="http://www.w3.org/2000/svg"
   xmlns:svg="http://www.w3.org/2000/svg">
  <sodipodi:namedview
     id="namedview1"
     pagecolor="#ffffff"
     bordercolor="#000000"
     borderopacity="0.25"
     inkscape:showpageshadow="2"
     inkscape:pageopacity="0.0"
     inkscape:pagecheckerboard="0"
     inkscape:deskcolor="#d1d1d1"
     inkscape:document-units="mm"
     inkscape:zoom="0.53183923"
     inkscape:cx="401.43711"
     inkscape:cy="540.5769"
     inkscape:window-width="1536"
     inkscape:window-height="795"
     inkscape:window-x="0"
     inkscape:window-y="32"
     inkscape:window-maximized="0"
     inkscape:current-layer="layer1"
     showguides="false" />
  <defs
     id="defs1" />
  <g
     inkscape:label="Layer 1"
     inkscape:groupmode="layer"
     id="layer1"
     transform="translate(-0.42298881)">
    <circle
       style="fill:#999999;stroke:none;stroke-width:0.611838;stroke-miterlimit:4;stroke-dasharray:none;stroke-opacity:1"
       id="path977-2-6-1-7-6-1-3"
       cx="103.25903"
       cy="72.513084"
       r="7.2933168"
       inkscape:export-filename="/home/christian/trabalhos/2023/LOGO CISALV RETRABALHADA/logo1.png"
       inkscape:export-xdpi="96"
       inkscape:export-ydpi="96" />
    <path
       style="fill:#333333;stroke:none;stroke-width:0.611838;stroke-linecap:butt;stroke-linejoin:miter;stroke-miterlimit:4;stroke-dasharray:none;stroke-opacity:1"
       d="m 91.738626,100.11595 c 0,0 -1.255431,4.63632 -5.098449,6.71794 -3.843017,2.0816 -9.334082,3.45181 -8.775617,5.70915 0.558466,2.25733 3.565039,7.54449 18.229396,10.06484 14.664374,2.52032 24.080244,8.84031 21.953204,19.45113 -0.95744,4.77626 -3.33955,8.07368 -10.51289,11.64051 -5.00559,2.48896 -7.942883,3.88169 -10.03949,5.44932 -3.213048,2.4024 -2.062772,9.53085 -2.062772,9.53085 0,0 -5.116803,-6.06954 -0.09565,-10.89543 8.548402,-8.2162 14.008572,-6.65982 17.326692,-13.84484 3.5733,-7.73756 -1.74168,-12.75053 -18.197665,-16.28855 -16.456003,-3.53803 -27.030608,-3.72085 -25.139477,-18.8874 1.891131,-15.166558 25.473847,-15.026896 22.41282,-8.64752 z"
       id="path1193-2-1-7-7-5-0-2"
       sodipodi:nodetypes="csssssscssssc"
       inkscape:export-filename="/home/christian/trabalhos/2023/LOGO CISALV RETRABALHADA/logo1.png"
       inkscape:export-xdpi="96"
       inkscape:export-ydpi="96" />
    <path
       style="fill:#333333;stroke:none;stroke-width:0.611838;stroke-linecap:butt;stroke-linejoin:miter;stroke-miterlimit:4;stroke-dasharray:none;stroke-opacity:1"
       d="m 114.36938,100.17281 c 0,0 1.25545,4.63632 5.09847,6.71794 3.84302,2.0816 9.33408,3.45181 8.77562,5.70915 -0.55847,2.25733 -3.56504,7.54449 -18.22942,10.06484 -14.664354,2.52032 -24.080219,8.84031 -21.953184,19.45113 0.957445,4.77626 3.339556,8.07368 10.512871,11.64053 5.005613,2.48896 7.942903,3.88169 10.039513,5.44932 3.21305,2.4024 2.06277,9.53085 2.06277,9.53085 0,0 5.11678,-6.06954 0.0957,-10.89543 -8.5484,-8.21622 -14.008567,-6.65982 -17.326709,-13.84486 -3.573278,-7.73756 1.74168,-12.75053 18.197679,-16.28855 16.45598,-3.53803 27.03059,-3.72085 25.13948,-18.8874 -1.89113,-15.166558 -25.47385,-15.026895 -22.41284,-8.64752 z"
       id="path1193-3-8-5-85-6-6-8-0"
       sodipodi:nodetypes="csssssscssssc"
       inkscape:export-filename="/home/christian/trabalhos/2023/LOGO CISALV RETRABALHADA/logo1.png"
       inkscape:export-xdpi="96"
       inkscape:export-ydpi="96" />
    <circle
       style="fill:#ffffff;stroke-width:0.611838;stroke-miterlimit:4;stroke-dasharray:none"
       id="path3413-97-5-7-4-3-5-6"
       cx="84.467712"
       cy="98.759201"
       r="1.0364134"
       inkscape:export-filename="/home/christian/trabalhos/2023/LOGO CISALV RETRABALHADA/logo1.png"
       inkscape:export-xdpi="96"
       inkscape:export-ydpi="96" />
    <path
       style="fill:#999999;stroke:none;stroke-width:0.611838;stroke-linecap:butt;stroke-linejoin:miter;stroke-miterlimit:4;stroke-dasharray:none;stroke-opacity:1"
       d="m 97.040225,82.191063 h 12.514885 l -5.74088,95.114507 h -2.52493 z"
       id="path3636-6-7-18-3-9-0-1"
       inkscape:export-filename="/home/christian/trabalhos/2023/LOGO CISALV RETRABALHADA/logo1.png"
       inkscape:export-xdpi="96"
       inkscape:export-ydpi="96" />
    <path
       style="fill:#333333;stroke:none;stroke-width:0.611838;stroke-linecap:butt;stroke-linejoin:miter;stroke-miterlimit:4;stroke-dasharray:none;stroke-opacity:1"
       d="m 118.04716,142.05903 c -0.95744,4.77626 -3.33955,8.07368 -10.51289,11.64051 -5.00559,2.48896 -7.942883,3.88169 -10.03949,5.44932 -3.213048,2.4024 -2.062772,9.53083 -2.062772,9.53083 0,0 -5.116803,-6.06952 -0.09565,-10.89541 8.548402,-8.2162 14.008572,-6.65982 17.326692,-13.84484"
       id="path1193-2-1-7-8-0-4-6-5"
       sodipodi:nodetypes="csscsc"
       inkscape:export-filename="/home/christian/trabalhos/2023/LOGO CISALV RETRABALHADA/logo1.png"
       inkscape:export-xdpi="96"
       inkscape:export-ydpi="96" />
    <path
       style="fill:#333333;stroke:none;stroke-width:0.611838;stroke-linecap:butt;stroke-linejoin:miter;stroke-miterlimit:4;stroke-dasharray:none;stroke-opacity:1"
       d="m 93.445063,143.99628 c -3.573278,-7.73756 1.74168,-12.75053 18.197687,-16.28855 16.45598,-3.53803 27.03058,-3.72085 25.13947,-18.8874 -1.89113,-15.166558 -25.47384,-15.026895 -22.41284,-8.64752 h 10e-5 c 0,0 1.25546,4.63632 5.09847,6.71794 3.84302,2.0816 9.33408,3.45181 8.77562,5.70915 -0.55847,2.25733 -3.56504,7.54449 -18.22942,10.06484 -14.664352,2.52032 -24.080217,8.84031 -21.953182,19.45113"
       id="path1193-3-8-5-85-9-3-8-4-5"
       sodipodi:nodetypes="cssccsssc"
       inkscape:export-filename="/home/christian/trabalhos/2023/LOGO CISALV RETRABALHADA/logo1.png"
       inkscape:export-xdpi="96"
       inkscape:export-ydpi="96" />
    <circle
       style="fill:#ffffff;stroke-width:0.611838;stroke-miterlimit:4;stroke-dasharray:none"
       id="path3413-6-3-4-4-0-1-6-4"
       cx="121.58406"
       cy="98.464554"
       r="1.0364134"
       inkscape:export-filename="/home/christian/trabalhos/2023/LOGO CISALV RETRABALHADA/logo1.png"
       inkscape:export-xdpi="96"
       inkscape:export-ydpi="96" />
    <path
       style="fill:#999999;stroke:none;stroke-width:0.611838;stroke-linecap:butt;stroke-linejoin:miter;stroke-miterlimit:4;stroke-dasharray:none;stroke-opacity:1"
       d="m 18.217485,71.323592 h 65.174667 c 0,0 0.630663,4.032177 3.721058,6.044432 3.090416,2.012275 6.413513,2.899828 6.413513,2.899828 V 90.359778 H 59.582769 c -6.134638,0 -9.296802,-0.401917 -9.296802,-4.980548 -7.036222,0 -9.183101,-0.23362 -9.183101,-4.769096 -5.271966,0 -9.217426,-0.103604 -9.217426,-4.122648 0,0 -13.667955,0.386315 -13.667955,-5.163894 z"
       id="path3909-1-6-5-9-2-2-7"
       sodipodi:nodetypes="ccsccccccc"
       inkscape:export-filename="/home/christian/trabalhos/2023/LOGO CISALV RETRABALHADA/logo1.png"
       inkscape:export-xdpi="96"
       inkscape:export-ydpi="96" />
    <path
       style="fill:none;stroke:#000000;stroke-width:0.611838;stroke-linecap:butt;stroke-linejoin:miter;stroke-miterlimit:4;stroke-dasharray:none;stroke-opacity:1"
       d="M 31.88544,76.487486 H 68.479634"
       id="path8502-2-5-97-2-9-5-6"
       inkscape:export-filename="/home/christian/trabalhos/2023/LOGO CISALV RETRABALHADA/logo1.png"
       inkscape:export-xdpi="96"
       inkscape:export-ydpi="96" />
    <path
       style="fill:none;stroke:#000000;stroke-width:0.611838;stroke-linecap:butt;stroke-linejoin:miter;stroke-miterlimit:4;stroke-dasharray:none;stroke-opacity:1"
       d="M 41.102866,80.610134 H 77.697059"
       id="path8502-7-93-6-5-5-3-8-5"
       inkscape:export-filename="/home/christian/trabalhos/2023/LOGO CISALV RETRABALHADA/logo1.png"
       inkscape:export-xdpi="96"
       inkscape:export-ydpi="96" />
    <path
       style="fill:none;stroke:#000000;stroke-width:0.611838;stroke-linecap:butt;stroke-linejoin:miter;stroke-miterlimit:4;stroke-dasharray:none;stroke-opacity:1"
       d="M 50.285967,85.37923 H 86.88014"
       id="path8502-7-5-1-9-3-4-9-6-6"
       inkscape:export-filename="/home/christian/trabalhos/2023/LOGO CISALV RETRABALHADA/logo1.png"
       inkscape:export-xdpi="96"
       inkscape:export-ydpi="96" />
    <path
       style="fill:#999999;stroke:none;stroke-width:0.611838;stroke-linecap:butt;stroke-linejoin:miter;stroke-miterlimit:4;stroke-dasharray:none;stroke-opacity:1"
       d="m 189.48575,71.741763 h -65.17469 c 0,0 -0.63066,4.032177 -3.72106,6.044432 -3.09041,2.012275 -6.41351,2.899828 -6.41351,2.899828 v 10.091926 h 33.94395 c 6.13466,0 9.2968,-0.401917 9.2968,-4.980547 7.03624,0 9.1831,-0.233621 9.1831,-4.769096 5.27197,0 9.21743,-0.103605 9.21743,-4.122649 0,0 13.66798,0.386315 13.66798,-5.163894 z"
       id="path3909-3-9-3-8-0-0-2-9"
       sodipodi:nodetypes="ccsccccccc"
       inkscape:export-filename="/home/christian/trabalhos/2023/LOGO CISALV RETRABALHADA/logo1.png"
       inkscape:export-xdpi="96"
       inkscape:export-ydpi="96" />
    <path
       style="fill:none;stroke:#000000;stroke-width:0.611838;stroke-linecap:butt;stroke-linejoin:miter;stroke-miterlimit:4;stroke-dasharray:none;stroke-opacity:1"
       d="M 175.81777,76.905657 H 139.22358"
       id="path8502-5-4-7-83-5-8-8-3"
       inkscape:export-filename="/home/christian/trabalhos/2023/LOGO CISALV RETRABALHADA/logo1.png"
       inkscape:export-xdpi="96"
       inkscape:export-ydpi="96" />
    <path
       style="fill:none;stroke:#000000;stroke-width:0.611838;stroke-linecap:butt;stroke-linejoin:miter;stroke-miterlimit:4;stroke-dasharray:none;stroke-opacity:1"
       d="M 166.60034,81.028306 H 130.00615"
       id="path8502-7-6-7-4-1-9-8-4-7"
       inkscape:export-filename="/home/christian/trabalhos/2023/LOGO CISALV RETRABALHADA/logo1.png"
       inkscape:export-xdpi="96"
       inkscape:export-ydpi="96" />
    <path
       style="fill:none;stroke:#000000;stroke-width:0.611838;stroke-linecap:butt;stroke-linejoin:miter;stroke-miterlimit:4;stroke-dasharray:none;stroke-opacity:1"
       d="M 157.41724,85.797402 H 120.82305"
       id="path8502-7-5-2-8-5-8-4-5-7-4"
       inkscape:export-filename="/home/christian/trabalhos/2023/LOGO CISALV RETRABALHADA/logo1.png"
       inkscape:export-xdpi="96"
       inkscape:export-ydpi="96" />
    <path
       style="fill:#ed1f24;fill-opacity:1;stroke:none;stroke-width:0.611838;stroke-linecap:butt;stroke-linejoin:miter;stroke-miterlimit:4;stroke-dasharray:none;stroke-opacity:1"
       d="M 7.9708859,7.4795906 V 58.058183 H 27.124441 V 23.865436 H 65.956392 V 7.3125995 Z"
       id="path9748-4-2-9-6-0-2-5"
       sodipodi:nodetypes="ccccccc"
       inkscape:export-filename="/home/christian/trabalhos/2023/LOGO CISALV RETRABALHADA/logo1.png"
       inkscape:export-xdpi="96"
       inkscape:export-ydpi="96" />
    <path
       style="fill:#ed1f24;fill-opacity:1;stroke:none;stroke-width:0.611838;stroke-linecap:butt;stroke-linejoin:miter;stroke-miterlimit:4;stroke-dasharray:none;stroke-opacity:1"
       d="M 7.6731266,157.59204 V 107.01345 H 26.826704 v 34.19274 h 38.831947 v 16.55284 z"
       id="path9748-0-0-4-3-2-0-9-4-2"
       sodipodi:nodetypes="ccccccc"
       inkscape:export-filename="/home/christian/trabalhos/2023/LOGO CISALV RETRABALHADA/logo1.png"
       inkscape:export-xdpi="96"
       inkscape:export-ydpi="96" />
    <path
       style="fill:#ed1f24;fill-opacity:1;stroke:none;stroke-width:0.611838;stroke-linecap:butt;stroke-linejoin:miter;stroke-miterlimit:4;stroke-dasharray:none;stroke-opacity:1"
       d="M 199.87674,7.3776787 V 57.956271 H 180.72316 V 23.763524 H 141.89121 V 7.2106876 Z"
       id="path9748-0-0-4-3-2-6-0-5"
       sodipodi:nodetypes="ccccccc"
       inkscape:export-filename="/home/christian/trabalhos/2023/LOGO CISALV RETRABALHADA/logo1.png"
       inkscape:export-xdpi="96"
       inkscape:export-ydpi="96" />
    <path
       style="fill:#ed1f24;fill-opacity:1;stroke:none;stroke-width:0.611838;stroke-linecap:butt;stroke-linejoin:miter;stroke-miterlimit:4;stroke-dasharray:none;stroke-opacity:1"
       d="m 199.57898,157.49013 v -50.5786 h -19.15356 v 34.19275 h -38.83195 v 16.55284 z"
       id="path9748-4-2-9-6-8-3-6-4"
       sodipodi:nodetypes="ccccccc"
       inkscape:export-filename="/home/christian/trabalhos/2023/LOGO CISALV RETRABALHADA/logo1.png"
       inkscape:export-xdpi="96"
       inkscape:export-ydpi="96" />
    <path
       d="m 35.078298,46.838516 c -0.04997,-8.586008 7.795065,-13.934066 13.533292,-14.135504 1.501166,-0.04038 3.134203,0.19538 4.899092,0.707183 0.994033,0.309815 1.491029,1.151725 1.491029,2.525689 v 2.727718 c 0,0.781297 -0.16744,1.353774 -0.502074,1.717471 -0.334737,0.350236 -0.811441,0.464732 -1.430172,0.343486 -3.659242,-0.999112 -9.959239,0.282812 -10.081872,5.819173 0.101565,6.720636 7.210045,6.35337 10.081872,5.798963 0.608575,-0.121144 1.080241,-0.0061 1.414937,0.343486 0.344893,0.350237 0.517309,0.922713 0.517309,1.717471 v 2.727738 c 0,1.387425 -0.583225,2.249526 -1.749674,2.586282 -1.73446,0.484943 -3.337068,0.693722 -4.807805,0.626379 C 42.417237,60.038214 34.962028,54.085109 35.078298,46.838516 Z"
       id="path2524-6-4-3-4-8-2-7"
       style="font-size:15.3263px;line-height:1.25;font-family:ARLON;-inkscape-font-specification:ARLON;fill:#333333;stroke:none;stroke-width:0.611838;stroke-miterlimit:4;stroke-dasharray:none;stroke-opacity:1"
       sodipodi:nodetypes="cccsscccccssccc"
       inkscape:export-filename="/home/christian/trabalhos/2023/LOGO CISALV RETRABALHADA/logo1.png"
       inkscape:export-xdpi="96"
       inkscape:export-ydpi="96" />
    <path
       d="m 62.47452,59.892821 q -1.054156,0 -1.62029,-0.585958 -0.566134,-0.585958 -0.566134,-1.69726 v -22.34721 q 0,-1.091091 0.566134,-1.677049 0.566134,-0.585958 1.62029,-0.585958 h 4.177634 q 1.054198,0 1.620291,0.585958 0.585672,0.585958 0.585672,1.677049 v 22.34721 q 0,1.091091 -0.566134,1.69726 -0.566134,0.585958 -1.639829,0.585958 z"
       id="path2521-1-4-8-7-5-9-4"
       style="font-size:15.3263px;line-height:1.25;font-family:ARLON;-inkscape-font-specification:ARLON;fill:#333333;stroke:none;stroke-width:0.611838;stroke-miterlimit:4;stroke-dasharray:none;stroke-opacity:1"
       inkscape:export-filename="/home/christian/trabalhos/2023/LOGO CISALV RETRABALHADA/logo1.png"
       inkscape:export-xdpi="96"
       inkscape:export-ydpi="96" />
    <path
       d="m 75.821775,59.428089 q -1.932634,-0.444521 -1.952152,-2.485267 v -1.555823 q 0,-1.171916 0.624708,-1.69724 0.644204,-0.525345 1.776452,-0.343506 2.244998,0.343506 4.197149,0.42431 1.952172,0.06057 3.455337,-0.363698 1.522702,-0.424309 1.522702,-1.414366 0,-0.505133 -0.370917,-0.889042 -0.370896,-0.404119 -1.307947,-0.808218 l -2.557341,-1.29314 q -3.9434,-1.959943 -5.56367,-3.839041 -1.620291,-1.899309 -1.620291,-4.647258 0,-2.707528 1.3665,-4.526013 1.366521,-1.818485 3.709107,-2.586302 2.342606,-0.767796 5.270864,-0.767796 2.947776,-0.02039 6.305504,0.727395 1.932654,0.44452 1.952152,2.505477 v 1.555803 q 0,1.151725 -0.624667,1.69726 -0.624707,0.545556 -1.756975,0.363697 -1.503164,-0.20211 -2.791594,-0.282873 -1.268912,-0.08076 -2.440195,-0.02039 -1.171303,0.04038 -1.835045,0.363697 -0.663743,0.323275 -0.663743,0.889042 0,0.484923 0.370896,0.909233 0.390455,0.404119 1.347024,0.84864 l 2.47925,1.212317 q 3.962897,1.939731 5.583188,3.818829 1.639849,1.879119 1.639849,4.748273 0,2.34383 -1.015162,4.04109 -1.015122,1.69726 -2.752539,2.646915 -1.717899,0.929464 -4.060505,1.313351 -2.342607,0.40412 -4.939004,0.242472 -2.576859,-0.161729 -5.348935,-0.788007 z"
       id="path2518-06-3-6-7-6-9-4"
       style="font-size:15.3263px;line-height:1.25;font-family:ARLON;-inkscape-font-specification:ARLON;fill:#333333;stroke:none;stroke-width:0.611838;stroke-miterlimit:4;stroke-dasharray:none;stroke-opacity:1"
       inkscape:export-filename="/home/christian/trabalhos/2023/LOGO CISALV RETRABALHADA/logo1.png"
       inkscape:export-xdpi="96"
       inkscape:export-ydpi="96" />
    <path
       id="path6298-3-0-0-5-1-0-3"
       style="font-size:15.3263px;line-height:1.25;font-family:ARLON;-inkscape-font-specification:ARLON;fill:#333333;stroke:none;stroke-width:0.611838;stroke-miterlimit:4;stroke-dasharray:none;stroke-opacity:1"
       d="m 110.44685,32.615172 c -3.64581,0.09137 -10.31313,3.242397 -11.783418,8.205343 l -0.355233,16.080171 c -0.208331,0.794738 -0.143578,1.420893 0.194769,1.878874 0.351399,0.444521 0.917084,0.679528 1.697872,0.666517 l 5.85466,-0.09728 c 1.31429,-0.02203 1.57336,-0.08872 1.8597,-1.422177 -0.11013,-6.512774 -0.19313,-11.541616 -0.21657,-15.642319 0.0122,-1.155661 1.47015,-2.631435 2.74826,-2.677425 1.28029,-0.04609 2.88622,0.947228 2.93855,2.47715 0,0 0.0579,0.733268 0.0394,2.84362 -0.002,0.42743 0.0239,0.629439 -0.16908,0.805139 -0.13276,0.121144 -0.2864,0.124611 -0.68731,0.101157 -0.64955,-0.03793 -2.16709,-0.06526 -2.17537,0.276306 -0.0273,1.123743 -0.0163,2.125975 0.0706,4.527094 0.008,0.204904 0.33072,0.18192 1.17918,0.183959 0.81301,0.002 1.17124,-0.01224 1.1777,0.208045 0.0184,0.644103 0.30762,7.15912 0.30762,7.15912 0.27332,1.333563 0.51423,1.929045 1.82815,1.891213 l 6.48828,-0.186611 c 0.78054,-0.02264 1.34029,-0.221995 1.67866,-0.666516 0.33836,-0.457981 0.40295,-1.085503 0.19476,-1.880261 l -0.0767,-15.276501 c -0.52059,-6.135249 -7.23545,-7.924468 -9.47556,-9.070686 -0.911,-0.255932 -2.01743,-0.38401 -3.31889,-0.38401 z"
       sodipodi:nodetypes="ccccccccacssssssscccccccc"
       inkscape:export-filename="/home/christian/trabalhos/2023/LOGO CISALV RETRABALHADA/logo1.png"
       inkscape:export-xdpi="96"
       inkscape:export-ydpi="96" />
    <path
       d="m 135.20551,59.892821 c -2.19945,0 -3.83278,-0.444521 -4.89992,-1.333563 -1.0542,-0.889042 -1.58128,-2.471807 -1.58128,-4.748273 V 35.262393 c 0,-0.727394 0.18865,-1.286411 0.56611,-1.677049 0.39046,-0.390638 0.93705,-0.585958 1.63983,-0.585958 h 4.09956 c 0.70278,0 1.24289,0.195381 1.62029,0.585958 0.37743,0.390638 0.56614,0.949655 0.56614,1.677049 v 16.002712 c 0,0.404099 0.091,0.693702 0.27331,0.868831 0.18212,0.161729 0.54659,0.242451 1.09321,0.242451 h 5.40424 c 0.7028,0 1.24291,0.202111 1.62034,0.606169 0.39043,0.390638 0.58563,0.949654 0.58563,1.677048 v 2.949999 c 0,0.727394 -0.19538,1.293141 -0.58563,1.69726 -0.37743,0.390638 -0.91754,0.585958 -1.62034,0.585958 z"
       id="path2512-2-7-4-4-1-8-0"
       style="font-size:15.3263px;line-height:1.25;font-family:ARLON;-inkscape-font-specification:ARLON;fill:#333333;stroke:none;stroke-width:0.611838;stroke-miterlimit:4;stroke-dasharray:none;stroke-opacity:1"
       sodipodi:nodetypes="scsscssssscsscsssss"
       inkscape:export-filename="/home/christian/trabalhos/2023/LOGO CISALV RETRABALHADA/logo1.png"
       inkscape:export-xdpi="96"
       inkscape:export-ydpi="96" />
    <path
       d="m 164.36618,34.99971 q 0.42949,-2.000324 2.40118,-2.000324 h 4.54854 q 1.17131,0 1.67887,0.666782 0.50756,0.666761 0.19538,1.879098 l -4.41191,16.528037 q -0.6442,2.424674 -1.44459,4.000688 -0.80038,1.555823 -1.93263,2.505478 -1.13227,0.949654 -2.49879,1.313352 -1.36652,0.363697 -3.31867,0.363697 -1.93266,0 -3.29918,-0.363697 -1.3665,-0.363698 -2.49874,-1.313352 -1.11273,-0.949655 -1.91314,-2.505478 -0.80039,-1.576014 -1.4251,-4.000688 L 146.016,35.545266 q -0.31234,-1.192126 0.19538,-1.858907 0.50756,-0.686973 1.69841,-0.686973 h 4.52901 q 1.97169,0 2.40118,2.000324 l 3.37724,16.184571 q 0.2147,0.889022 0.48802,1.232528 0.29285,0.323275 0.87848,0.323275 0.60517,0 0.898,-0.323275 0.29282,-0.343506 0.50756,-1.232528 z"
       id="path2509-0-8-8-8-5-1-7"
       style="font-size:15.3263px;line-height:1.25;font-family:ARLON;-inkscape-font-specification:ARLON;fill:#333333;stroke:none;stroke-width:0.611838;stroke-miterlimit:4;stroke-dasharray:none;stroke-opacity:1"
       inkscape:export-filename="/home/christian/trabalhos/2023/LOGO CISALV RETRABALHADA/logo1.png"
       inkscape:export-xdpi="96"
       inkscape:export-ydpi="96" />
  </g>
</svg>
