<?xml version="1.0" encoding="UTF-8" standalone="no"?>
<!-- Created with Inkscape (http://www.inkscape.org/) -->

<svg
   width="210mm"
   height="60mm"
   viewBox="0 0 210 60"
   version="1.1"
   id="svg1056"
   sodipodi:docname="logo cisalv path branco.svg"
   inkscape:version="1.1.2 (0a00cf5339, 2022-02-04)"
   xmlns:inkscape="http://www.inkscape.org/namespaces/inkscape"
   xmlns:sodipodi="http://sodipodi.sourceforge.net/DTD/sodipodi-0.dtd"
   xmlns="http://www.w3.org/2000/svg"
   xmlns:svg="http://www.w3.org/2000/svg">
  <sodipodi:namedview
     id="namedview2376"
     pagecolor="#ffffff"
     bordercolor="#666666"
     borderopacity="1.0"
     inkscape:pageshadow="2"
     inkscape:pageopacity="0.0"
     inkscape:pagecheckerboard="0"
     inkscape:document-units="mm"
     showgrid="false"
     inkscape:zoom="0.63981199"
     inkscape:cx="504.8358"
     inkscape:cy="151.60704"
     inkscape:window-width="1536"
     inkscape:window-height="795"
     inkscape:window-x="0"
     inkscape:window-y="32"
     inkscape:window-maximized="0"
     inkscape:current-layer="layer1" />
  <defs
     id="defs1053" />
  <g
     id="layer1">
    <circle
       style="fill:#ffffff;stroke:#000000;stroke-width:0.139588;stroke-miterlimit:4;stroke-dasharray:none;stroke-opacity:1;fill-opacity:1"
       id="path977-2-6-1-7"
       cx="34.747952"
       cy="26.225679"
       r="1.6639401" />
    <path
       style="fill:#ffffff;stroke:#000000;stroke-width:0.139588;stroke-linecap:butt;stroke-linejoin:miter;stroke-miterlimit:4;stroke-dasharray:none;stroke-opacity:1"
       d="m 32.119621,32.523147 c 0,0 -0.286423,1.05777 -1.163193,1.532676 -0.87677,0.474907 -2.129531,0.787522 -2.002124,1.302525 0.127393,0.515003 0.81335,1.721233 4.158968,2.296248 3.345618,0.575002 5.493799,2.016872 5.008526,4.43769 -0.218431,1.089683 -0.761897,1.841972 -2.398468,2.655744 -1.14201,0.567838 -1.812141,0.885578 -2.290469,1.24324 -0.733041,0.548095 -0.470612,2.174417 -0.470612,2.174417 0,0 -0.923675,-1.241221 -0.02184,-2.485751 1.950279,-1.874483 3.195993,-1.519413 3.953014,-3.158634 0.815228,-1.765304 -0.397365,-2.908988 -4.151732,-3.716164 -3.754368,-0.807192 -6.166915,-0.848904 -5.735468,-4.309088 0.431462,-3.460184 5.811758,-3.428329 5.113397,-1.972903 z"
       id="path1193-2-1-7-7"
       sodipodi:nodetypes="csccscccccccsc" />
    <path
       style="fill:#ffffff;stroke:#000000;stroke-width:0.139588;stroke-linecap:butt;stroke-linejoin:miter;stroke-miterlimit:4;stroke-dasharray:none;stroke-opacity:1"
       d="m 37.282737,32.536119 c 0,0 0.286423,1.05777 1.163193,1.532677 0.87677,0.474906 2.129531,0.787521 2.002109,1.302524 -0.127393,0.515003 -0.81335,1.721233 -4.158953,2.296249 -3.345618,0.575001 -5.493814,2.016872 -5.008527,4.437689 0.218432,1.089684 0.761898,1.841972 2.398454,2.655744 1.14201,0.567838 1.812141,0.885593 2.290484,1.24324 0.733041,0.548096 0.470611,2.174417 0.470611,2.174417 0,0 1.167372,-1.38474 0.02184,-2.485737 -1.950278,-1.874497 -3.196007,-1.519413 -3.953028,-3.158648 -0.815228,-1.765304 0.397365,-2.908987 4.151732,-3.716164 3.754368,-0.807192 6.166915,-0.848904 5.735468,-4.309088 -0.431448,-3.460184 -5.811758,-3.428328 -5.113397,-1.972903 z"
       id="path1193-3-8-5-85-6" />
    <circle
       style="fill:#000000;stroke-width:0.139588;stroke-miterlimit:4;stroke-dasharray:none;fill-opacity:1"
       id="path3413-97-5-7-4"
       cx="30.460789"
       cy="32.213623"
       r="0.23645344" />
    <path
       style="fill:#ffffff;stroke:#000000;stroke-width:0.14;stroke-linecap:butt;stroke-linejoin:miter;stroke-miterlimit:4;stroke-dasharray:none;stroke-opacity:1;fill-opacity:1"
       d="m 33.329156,28.43367 h 2.85522 l -1.309761,21.69997 h -0.576049 z"
       id="path3636-6-7-18-3" />
    <path
       style="fill:#ffffff;stroke:#000000;stroke-width:0.139588;stroke-linecap:butt;stroke-linejoin:miter;stroke-miterlimit:4;stroke-dasharray:none;stroke-opacity:1"
       d="m 38.121798,42.0923 c -0.218431,1.089684 -0.673753,1.89352 -2.310324,2.707278 -1.14201,0.567838 -1.933188,0.873337 -2.411516,1.230984 -0.733041,0.548095 -0.437709,2.135125 -0.437709,2.135125 0,0 -1.048158,-1.227292 0.01437,-2.525111 1.258146,-1.45087 3.161218,-1.358819 4.058273,-3.496754"
       id="path1193-2-1-7-8-0"
       sodipodi:nodetypes="cssccc" />
    <path
       style="fill:#ffffff;stroke:#000000;stroke-width:0.139588;stroke-linecap:butt;stroke-linejoin:miter;stroke-miterlimit:4;stroke-dasharray:none;stroke-opacity:1"
       d="m 32.314984,41.982772 c -0.284122,-1.18154 0.5913,-2.357485 4.345682,-3.164662 3.754353,-0.807192 6.166915,-0.848904 5.735467,-4.309088 -0.431462,-3.460184 -5.811758,-3.428328 -5.113396,-1.972903 h 1.4e-5 c 0,0 0.286424,1.05777 1.163193,1.532677 0.87677,0.474906 2.129532,0.787521 2.002124,1.302524 -0.127393,0.515003 -0.81335,1.721233 -4.158968,2.296249 -3.345603,0.575001 -5.488904,2.051069 -5.003631,4.471886"
       id="path1193-3-8-5-85-9-3"
       sodipodi:nodetypes="cccccsccc" />
    <circle
       style="fill:#000000;stroke-width:0.139588;stroke-miterlimit:4;stroke-dasharray:none;fill-opacity:1"
       id="path3413-6-3-4-4-0"
       cx="38.928722"
       cy="32.1464"
       r="0.23645344" />
    <path
       style="fill:#fffffe;stroke:#000000;stroke-width:0.139588;stroke-linecap:butt;stroke-linejoin:miter;stroke-miterlimit:4;stroke-dasharray:none;stroke-opacity:1;fill-opacity:1"
       d="m 15.346063,25.954296 h 14.869345 c 0,0 0.143845,0.919923 0.848933,1.379019 0.705073,0.45908 1.463229,0.66157 1.463229,0.66157 v 2.302436 h -7.744187 c -1.399591,0 -2.121014,-0.09172 -2.121014,-1.136288 -1.605298,0 -2.095098,-0.05329 -2.095098,-1.088053 -1.202765,0 -2.102917,-0.02359 -2.102917,-0.940568 0,0 -3.118291,0.08808 -3.118291,-1.178116 z"
       id="path3909-1-6-5-9" />
    <path
       style="fill:none;stroke:#000000;stroke-width:0.139588;stroke-linecap:butt;stroke-linejoin:miter;stroke-miterlimit:4;stroke-dasharray:none;stroke-opacity:1"
       d="m 18.464354,27.132412 h 8.348815"
       id="path8502-2-5-97-2" />
    <path
       style="fill:none;stroke:#000000;stroke-width:0.139588;stroke-linecap:butt;stroke-linejoin:miter;stroke-miterlimit:4;stroke-dasharray:none;stroke-opacity:1"
       d="m 20.567271,28.07298 h 8.348815"
       id="path8502-7-93-6-5-5" />
    <path
       style="fill:none;stroke:#000000;stroke-width:0.139588;stroke-linecap:butt;stroke-linejoin:miter;stroke-miterlimit:4;stroke-dasharray:none;stroke-opacity:1"
       d="M 22.662369,29.161033 H 31.01117"
       id="path8502-7-5-1-9-3-4" />
    <path
       style="fill:#ffffff;stroke:#000000;stroke-width:0.14;stroke-linecap:butt;stroke-linejoin:miter;stroke-miterlimit:4;stroke-dasharray:none;stroke-opacity:1;fill-opacity:1"
       d="m 54.420216,26.049702 h -14.86933 c 0,0 -0.143845,0.919924 -0.848947,1.379004 -0.705059,0.459096 -1.463215,0.661585 -1.463215,0.661585 v 2.302436 h 7.744172 c 1.399591,0 2.121029,-0.09172 2.121029,-1.136287 1.605283,0 2.095084,-0.05329 2.095084,-1.088053 1.202779,0 2.102917,-0.02359 2.102917,-0.940568 0,0 3.11829,0.08808 3.11829,-1.178117 z"
       id="path3909-3-9-3-8-0" />
    <path
       style="fill:none;stroke:#000000;stroke-width:0.139588;stroke-linecap:butt;stroke-linejoin:miter;stroke-miterlimit:4;stroke-dasharray:none;stroke-opacity:1"
       d="M 51.301926,27.227819 H 42.95311"
       id="path8502-5-4-7-83-5" />
    <path
       style="fill:none;stroke:#000000;stroke-width:0.139588;stroke-linecap:butt;stroke-linejoin:miter;stroke-miterlimit:4;stroke-dasharray:none;stroke-opacity:1"
       d="M 49.199009,28.168387 H 40.850193"
       id="path8502-7-6-7-4-1-9" />
    <path
       style="fill:none;stroke:#000000;stroke-width:0.139588;stroke-linecap:butt;stroke-linejoin:miter;stroke-miterlimit:4;stroke-dasharray:none;stroke-opacity:1"
       d="M 47.103925,29.25644 H 38.755109"
       id="path8502-7-5-2-8-5-8-4" />
    <path
       style="fill:#ffffff;fill-opacity:1;stroke:#000000;stroke-width:0.139588;stroke-linecap:butt;stroke-linejoin:miter;stroke-miterlimit:4;stroke-dasharray:none;stroke-opacity:1"
       d="m 13.00835,11.388552 v 11.539296 h 4.3698 v -7.800934 h 8.859348 v -3.776461 z"
       id="path9748-4-2-9-6" />
    <path
       style="fill:#fffffd;fill-opacity:1;stroke:#000000;stroke-width:0.139588;stroke-linecap:butt;stroke-linejoin:miter;stroke-miterlimit:4;stroke-dasharray:none;stroke-opacity:1"
       d="m 12.940417,45.636083 v -11.53929 h 4.369814 v 7.800923 h 8.859349 v 3.776469 z"
       id="path9748-0-0-4-3-2-0" />
    <path
       style="fill:#ffffff;fill-opacity:1;stroke:#000000;stroke-width:0.139588;stroke-linecap:butt;stroke-linejoin:miter;stroke-miterlimit:4;stroke-dasharray:none;stroke-opacity:1"
       d="M 56.790877,11.365301 V 22.904597 H 52.421063 V 15.103663 H 43.561714 V 11.327202 Z"
       id="path9748-0-0-4-3-2" />
    <path
       style="fill:#ffffff;fill-opacity:1;stroke:#000000;stroke-width:0.139588;stroke-linecap:butt;stroke-linejoin:miter;stroke-miterlimit:4;stroke-dasharray:none;stroke-opacity:1"
       d="m 56.722943,45.612832 v -11.53929 h -4.369799 v 7.800923 h -8.859349 v 3.776469 z"
       id="path9748-4-2-9-6-8" />
    <path
       d="m 19.192794,20.368127 c -0.01165,-1.958862 1.778407,-3.178999 3.087571,-3.224957 0.342476,-0.0092 0.715046,0.04458 1.117695,0.161341 0.226789,0.07068 0.340176,0.262762 0.340176,0.576226 v 0.622317 c 0,0.17825 -0.03815,0.308857 -0.114581,0.391833 -0.07644,0.0799 -0.18512,0.10602 -0.326286,0.07836 -0.834839,-0.227942 -2.272153,0.06453 -2.300136,1.32762 0.02315,1.533287 1.644943,1.449496 2.300136,1.32301 0.138895,-0.02763 0.246458,-0.0014 0.322807,0.07837 0.07877,0.0799 0.118075,0.210514 0.118075,0.391835 v 0.622321 c 0,0.316536 -0.133071,0.513221 -0.399184,0.59005 -0.39572,0.110635 -0.761345,0.15827 -1.096891,0.142913 -1.375029,-0.06977 -3.075908,-1.427952 -3.049382,-3.081232 z"
       id="path2524-6-4-3-4"
       style="font-size:15.3263px;line-height:1.25;font-family:ARLON;-inkscape-font-specification:ARLON;fill:#fffffd;stroke:#000000;stroke-width:0.14;stroke-miterlimit:4;stroke-dasharray:none;stroke-opacity:1;fill-opacity:1" />
    <path
       d="m 25.443134,23.346412 q -0.240504,0 -0.369659,-0.133683 -0.12914,-0.133682 -0.12914,-0.387222 v -5.098424 q 0,-0.248927 0.12914,-0.382611 0.129141,-0.133683 0.369659,-0.133683 h 0.953103 q 0.240518,0 0.369659,0.133683 0.133653,0.133682 0.133653,0.382611 v 5.098424 q 0,0.248929 -0.12914,0.387222 -0.12914,0.133683 -0.374113,0.133683 z"
       id="path2521-1-4-8-7"
       style="font-size:15.3263px;line-height:1.25;font-family:ARLON;-inkscape-font-specification:ARLON;fill:#fffffd;stroke:#000000;stroke-width:0.14;stroke-miterlimit:4;stroke-dasharray:none;stroke-opacity:1;fill-opacity:1" />
    <path
       d="m 28.488249,23.240386 q -0.440925,-0.10142 -0.44538,-0.567004 v -0.354955 q 0,-0.267366 0.142534,-0.387218 0.146961,-0.119851 0.405285,-0.07837 0.512178,0.07837 0.957559,0.0968 0.445381,0.01383 0.788323,-0.08297 0.347397,-0.0968 0.347397,-0.322681 0,-0.115251 -0.08459,-0.202832 -0.08459,-0.0922 -0.298406,-0.184391 L 29.717527,20.86174 q -0.899672,-0.447153 -1.26933,-0.875862 -0.369658,-0.43332 -0.369658,-1.060254 0,-0.61771 0.311756,-1.032589 0.311771,-0.414881 0.846225,-0.590054 0.534454,-0.175171 1.202532,-0.175171 0.672519,-0.0047 1.438566,0.165953 0.440925,0.10142 0.44538,0.571614 v 0.35495 q 0,0.262762 -0.142534,0.387223 -0.142535,0.124466 -0.400844,0.08297 -0.342942,-0.04611 -0.636893,-0.06454 -0.289495,-0.01843 -0.556729,-0.0047 -0.26722,0.0092 -0.41865,0.08297 -0.15143,0.07376 -0.15143,0.202831 0,0.110635 0.08459,0.207438 0.0891,0.0922 0.307315,0.193614 l 0.565625,0.276584 q 0.904127,0.442543 1.273785,0.87125 0.374128,0.428714 0.374128,1.0833 0,0.534735 -0.231608,0.921957 -0.231593,0.387224 -0.627982,0.603884 -0.391934,0.212053 -0.926388,0.299635 -0.534453,0.0922 -1.126809,0.05532 -0.587901,-0.03689 -1.220338,-0.17978 z"
       id="path2518-06-3-6-7"
       style="font-size:15.3263px;line-height:1.25;font-family:ARLON;-inkscape-font-specification:ARLON;fill:#fffffd;stroke:#000000;stroke-width:0.14;stroke-miterlimit:4;stroke-dasharray:none;stroke-opacity:1;fill-opacity:1" />
    <path
       id="path6298-3-0-0-5"
       style="font-size:15.3263px;line-height:1.25;font-family:ARLON;-inkscape-font-specification:ARLON;fill:#fffffd;stroke:#000000;stroke-width:0.14;stroke-miterlimit:4;stroke-dasharray:none;stroke-opacity:1;fill-opacity:1"
       d="m 36.387826,17.123129 c -0.831782,0.02085 -2.352898,0.739741 -2.688342,1.872016 l -0.08109,3.668624 c -0.04746,0.181316 -0.03276,0.32417 0.0444,0.428658 0.08022,0.101419 0.209231,0.15503 0.387363,0.152063 l 1.335719,-0.0222 c 0.299847,-0.0051 0.358957,-0.02024 0.424285,-0.324463 -0.02519,-1.485863 -0.04411,-2.633172 -0.04936,-3.56873 0.0029,-0.26366 0.335415,-0.600352 0.627007,-0.610844 0.292086,-0.01048 0.658483,0.216106 0.670422,0.565151 0,0 0.0131,0.167292 0.0087,0.648761 -4.66e-4,0.09752 0.0058,0.143597 -0.03858,0.183689 -0.03028,0.02763 -0.06537,0.02843 -0.156817,0.02308 -0.148183,-0.0086 -0.494416,-0.01489 -0.496294,0.06304 -0.0058,0.256377 -0.0044,0.485032 0.01616,1.032837 0.0015,0.04675 0.07542,0.04151 0.269025,0.04197 0.185484,4.66e-4 0.267205,-0.0028 0.26869,0.04746 0.0044,0.146951 0.07017,1.633325 0.07017,1.633325 0.06231,0.304246 0.117348,0.440102 0.417092,0.431472 l 1.480278,-0.04257 c 0.178074,-0.0051 0.305773,-0.05065 0.38298,-0.152064 0.07716,-0.104491 0.09187,-0.247654 0.04441,-0.428974 l -0.01747,-3.48527 c -0.118803,-1.399739 -1.650781,-1.807943 -2.161853,-2.069446 -0.207847,-0.05838 -0.460274,-0.08762 -0.757195,-0.08762 z" />
    <path
       d="m 42.036404,23.346412 c -0.501797,0 -0.874425,-0.10142 -1.117899,-0.304247 -0.240504,-0.202831 -0.360763,-0.563932 -0.360763,-1.083298 v -4.231785 c 0,-0.165952 0.0431,-0.293489 0.129141,-0.382612 0.0891,-0.08912 0.213787,-0.133682 0.374127,-0.133682 h 0.935298 c 0.160341,0 0.283555,0.04458 0.369658,0.133682 0.08604,0.08912 0.129141,0.21666 0.129141,0.382612 v 3.650953 c 0,0.09219 0.02082,0.158264 0.06231,0.198219 0.04149,0.03689 0.124772,0.05531 0.249414,0.05531 h 1.232961 c 0.160325,0 0.283555,0.04611 0.369672,0.138298 0.0891,0.08912 0.133654,0.216659 0.133654,0.382611 v 0.67303 c 0,0.165952 -0.04455,0.295025 -0.133654,0.387222 -0.08604,0.08912 -0.209347,0.133683 -0.369672,0.133683 z"
       id="path2512-2-7-4-4"
       style="font-size:15.3263px;line-height:1.25;font-family:ARLON;-inkscape-font-specification:ARLON;fill:#fffffd;stroke:#000000;stroke-width:0.14;stroke-miterlimit:4;stroke-dasharray:none;stroke-opacity:1;fill-opacity:1" />
    <path
       d="m 48.689291,17.667152 q 0.09798,-0.456366 0.547819,-0.456366 h 1.037737 q 0.267219,0 0.383023,0.152123 0.115746,0.152119 0.04455,0.428709 l -1.006565,3.770804 q -0.146961,0.553179 -0.329577,0.912739 -0.182601,0.354955 -0.440911,0.571615 -0.258324,0.21666 -0.570094,0.299636 -0.311771,0.08297 -0.757137,0.08297 -0.440926,0 -0.752696,-0.08297 -0.311757,-0.08297 -0.570081,-0.299636 -0.253869,-0.21666 -0.436485,-0.571615 -0.182587,-0.35956 -0.325121,-0.912739 l -1.011006,-3.770804 q -0.07119,-0.271979 0.04455,-0.424102 0.115746,-0.15673 0.387493,-0.15673 h 1.033267 q 0.449836,0 0.547819,0.456366 l 0.770517,3.692442 q 0.04892,0.202828 0.111378,0.281197 0.06683,0.07376 0.200422,0.07376 0.138021,0 0.204863,-0.07376 0.06683,-0.07837 0.115745,-0.281197 z"
       id="path2509-0-8-8-8"
       style="font-size:15.3263px;line-height:1.25;font-family:ARLON;-inkscape-font-specification:ARLON;fill:#fffffd;stroke:#000000;stroke-width:0.14;stroke-miterlimit:4;stroke-dasharray:none;stroke-opacity:1;fill-opacity:1" />
    <path
       d="m 83.988282,15.227387 c -1.571662,0 -2.722159,1.212131 -2.722159,3.718572 0,2.557803 1.11968,3.74939 2.701615,3.74939 0.873145,0 1.530572,-0.431437 1.962009,-0.903963 l -0.729333,-0.862873 c -0.349259,0.287624 -0.636883,0.513615 -1.088864,0.513615 -0.719061,0 -1.171042,-0.647155 -1.171042,-2.496169 0,-1.890103 0.451981,-2.516713 1.16077,-2.516713 0.390347,0 0.698516,0.184901 1.016957,0.462253 l 0.749878,-0.883418 c -0.513615,-0.49307 -1.099136,-0.780694 -1.879831,-0.780694 z"
       style="font-weight:bold;font-stretch:ultra-condensed;font-size:10.2723px;line-height:1.25;font-family:'Fira Sans Compressed';-inkscape-font-specification:'Fira Sans Compressed, Bold Ultra-Condensed';text-align:center;text-anchor:middle;stroke-width:0.646967;fill:#ffffff;fill-opacity:1"
       id="path1077" />
    <path
       d="m 88.7238,15.227387 c -1.715474,0 -2.691343,1.242948 -2.691343,3.728845 0,2.537258 0.975869,3.739117 2.691343,3.739117 1.725746,0 2.701615,-1.242949 2.701615,-3.739117 0,-2.537259 -0.975869,-3.728845 -2.701615,-3.728845 z m 0,1.181314 c 0.708789,0 1.02723,0.657427 1.02723,2.547531 0,1.941464 -0.308169,2.557802 -1.02723,2.557802 -0.698517,0 -1.016958,-0.616338 -1.016958,-2.557802 0,-1.890104 0.318441,-2.547531 1.016958,-2.547531 z"
       style="font-weight:bold;font-stretch:ultra-condensed;font-size:10.2723px;line-height:1.25;font-family:'Fira Sans Compressed';-inkscape-font-specification:'Fira Sans Compressed, Bold Ultra-Condensed';text-align:center;text-anchor:middle;stroke-width:0.646967;fill:#ffffff;fill-opacity:1"
       id="path1079" />
    <path
       d="m 96.859455,15.402016 h -1.397033 v 2.978967 c 0,1.11968 0.123268,2.05446 0.215718,2.660525 l -1.499755,-5.639492 h -1.992827 v 7.118704 h 1.386761 v -2.691343 c 0,-1.314854 -0.123268,-2.239361 -0.205446,-2.94815 l 1.499756,5.639493 h 1.992826 z"
       style="font-weight:bold;font-stretch:ultra-condensed;font-size:10.2723px;line-height:1.25;font-family:'Fira Sans Compressed';-inkscape-font-specification:'Fira Sans Compressed, Bold Ultra-Condensed';text-align:center;text-anchor:middle;stroke-width:0.646967;fill:#ffffff;fill-opacity:1"
       id="path1081" />
    <path
       d="m 99.807594,15.227387 c -1.273765,0 -2.229089,0.821784 -2.229089,2.05446 0,1.006685 0.493071,1.612751 1.807925,2.167455 0.77042,0.308169 0.99641,0.616338 0.99641,1.119681 0,0.544431 -0.26708,0.934779 -0.852598,0.934779 -0.534159,0 -0.965596,-0.26708 -1.417577,-0.6677 l -0.770423,0.852601 c 0.523888,0.564977 1.222404,1.006686 2.311268,1.006686 1.49976,0 2.40372,-0.955324 2.40372,-2.249634 0,-1.253221 -0.60607,-1.766836 -1.71548,-2.259906 -0.873141,-0.369803 -1.099132,-0.595793 -1.099132,-1.02723 0,-0.441709 0.256807,-0.749878 0.739606,-0.749878 0.431436,0 0.821786,0.195174 1.222406,0.564977 l 0.70879,-0.842329 c -0.54444,-0.575249 -1.19159,-0.903962 -2.105826,-0.903962 z"
       style="font-weight:bold;font-stretch:ultra-condensed;font-size:10.2723px;line-height:1.25;font-family:'Fira Sans Compressed';-inkscape-font-specification:'Fira Sans Compressed, Bold Ultra-Condensed';text-align:center;text-anchor:middle;stroke-width:0.646967;fill:#ffffff;fill-opacity:1"
       id="path1083" />
    <path
       d="m 105.85797,12.813396 -1.8901,1.232676 0.39035,0.76015 2.08527,-0.873145 z m -0.64715,2.413991 c -1.71548,0 -2.69135,1.242948 -2.69135,3.728845 0,2.537258 0.97587,3.739117 2.69135,3.739117 1.72574,0 2.70161,-1.242949 2.70161,-3.739117 0,-2.537259 -0.97587,-3.728845 -2.70161,-3.728845 z m 0,1.181314 c 0.70879,0 1.02723,0.657427 1.02723,2.547531 0,1.941464 -0.30817,2.557802 -1.02723,2.557802 -0.69852,0 -1.01696,-0.616338 -1.01696,-2.557802 0,-1.890104 0.31844,-2.547531 1.01696,-2.547531 z"
       style="font-weight:bold;font-stretch:ultra-condensed;font-size:10.2723px;line-height:1.25;font-family:'Fira Sans Compressed';-inkscape-font-specification:'Fira Sans Compressed, Bold Ultra-Condensed';text-align:center;text-anchor:middle;stroke-width:0.646967;fill:#ffffff;fill-opacity:1"
       id="path1085" />
    <path
       d="m 113.60328,22.52072 -1.45867,-3.050874 c 0.77042,-0.390347 1.07859,-1.11968 1.07859,-1.910647 0,-1.386761 -0.82178,-2.157183 -2.65025,-2.157183 h -1.90038 v 7.118704 h 1.61276 v -2.742705 h 0.39034 0.0514 l 1.16077,2.742705 z m -3.31795,-3.862385 v -2.116094 h 0.27735 c 0.71906,0 1.01696,0.318441 1.01696,1.016958 0,0.749878 -0.26708,1.099136 -0.9656,1.099136 z"
       style="font-weight:bold;font-stretch:ultra-condensed;font-size:10.2723px;line-height:1.25;font-family:'Fira Sans Compressed';-inkscape-font-specification:'Fira Sans Compressed, Bold Ultra-Condensed';text-align:center;text-anchor:middle;stroke-width:0.646967;fill:#ffffff;fill-opacity:1"
       id="path1087" />
    <path
       d="m 116.38705,15.227387 c -1.57166,0 -2.72216,1.212131 -2.72216,3.718572 0,2.557803 1.11968,3.74939 2.70161,3.74939 0.87315,0 1.53058,-0.431437 1.96201,-0.903963 l -0.72933,-0.862873 c -0.34926,0.287624 -0.63688,0.513615 -1.08886,0.513615 -0.71907,0 -1.17105,-0.647155 -1.17105,-2.496169 0,-1.890103 0.45198,-2.516713 1.16077,-2.516713 0.39035,0 0.69852,0.184901 1.01696,0.462253 l 0.74988,-0.883418 c -0.51362,-0.49307 -1.09914,-0.780694 -1.87983,-0.780694 z"
       style="font-weight:bold;font-stretch:ultra-condensed;font-size:10.2723px;line-height:1.25;font-family:'Fira Sans Compressed';-inkscape-font-specification:'Fira Sans Compressed, Bold Ultra-Condensed';text-align:center;text-anchor:middle;stroke-width:0.646967;fill:#ffffff;fill-opacity:1"
       id="path1089" />
    <path
       d="m 120.43433,15.402016 h -1.61275 v 7.118704 h 1.61275 z"
       style="font-weight:bold;font-stretch:ultra-condensed;font-size:10.2723px;line-height:1.25;font-family:'Fira Sans Compressed';-inkscape-font-specification:'Fira Sans Compressed, Bold Ultra-Condensed';text-align:center;text-anchor:middle;stroke-width:0.646967;fill:#ffffff;fill-opacity:1"
       id="path1091" />
    <path
       d="m 123.89608,15.227387 c -1.71548,0 -2.69135,1.242948 -2.69135,3.728845 0,2.537258 0.97587,3.739117 2.69135,3.739117 1.72574,0 2.70161,-1.242949 2.70161,-3.739117 0,-2.537259 -0.97587,-3.728845 -2.70161,-3.728845 z m 0,1.181314 c 0.70878,0 1.02723,0.657427 1.02723,2.547531 0,1.941464 -0.30817,2.557802 -1.02723,2.557802 -0.69852,0 -1.01696,-0.616338 -1.01696,-2.557802 0,-1.890104 0.31844,-2.547531 1.01696,-2.547531 z"
       style="font-weight:bold;font-stretch:ultra-condensed;font-size:10.2723px;line-height:1.25;font-family:'Fira Sans Compressed';-inkscape-font-specification:'Fira Sans Compressed, Bold Ultra-Condensed';text-align:center;text-anchor:middle;stroke-width:0.646967;fill:#ffffff;fill-opacity:1"
       id="path1093" />
    <path
       d="m 130.87095,15.402016 h -1.61275 v 7.118704 h 1.61275 z"
       style="font-weight:bold;font-stretch:ultra-condensed;font-size:10.2723px;line-height:1.25;font-family:'Fira Sans Compressed';-inkscape-font-specification:'Fira Sans Compressed, Bold Ultra-Condensed';text-align:center;text-anchor:middle;stroke-width:0.646967;fill:#ffffff;fill-opacity:1"
       id="path1095" />
    <path
       d="m 136.50015,15.402016 h -1.39703 v 2.978967 c 0,1.11968 0.12327,2.05446 0.21572,2.660525 l -1.49976,-5.639492 h -1.99282 v 7.118704 h 1.38676 v -2.691343 c 0,-1.314854 -0.12327,-2.239361 -0.20545,-2.94815 l 1.49976,5.639493 h 1.99282 z"
       style="font-weight:bold;font-stretch:ultra-condensed;font-size:10.2723px;line-height:1.25;font-family:'Fira Sans Compressed';-inkscape-font-specification:'Fira Sans Compressed, Bold Ultra-Condensed';text-align:center;text-anchor:middle;stroke-width:0.646967;fill:#ffffff;fill-opacity:1"
       id="path1097" />
    <path
       d="m 141.61575,15.402016 h -4.59172 v 1.232676 h 1.4484 v 5.886028 h 1.61275 v -5.886028 h 1.36621 z"
       style="font-weight:bold;font-stretch:ultra-condensed;font-size:10.2723px;line-height:1.25;font-family:'Fira Sans Compressed';-inkscape-font-specification:'Fira Sans Compressed, Bold Ultra-Condensed';text-align:center;text-anchor:middle;stroke-width:0.646967;fill:#ffffff;fill-opacity:1"
       id="path1099" />
    <path
       d="m 145.82738,15.402016 h -3.75966 v 7.118704 h 3.72884 v -1.171043 h -2.11609 v -1.879831 h 1.74629 v -1.129952 h -1.74629 v -1.787381 h 1.98255 z"
       style="font-weight:bold;font-stretch:ultra-condensed;font-size:10.2723px;line-height:1.25;font-family:'Fira Sans Compressed';-inkscape-font-specification:'Fira Sans Compressed, Bold Ultra-Condensed';text-align:center;text-anchor:middle;stroke-width:0.646967;fill:#ffffff;fill-opacity:1"
       id="path1101" />
    <path
       d="m 151.43605,22.52072 -1.45867,-3.050874 c 0.77043,-0.390347 1.07859,-1.11968 1.07859,-1.910647 0,-1.386761 -0.82178,-2.157183 -2.65025,-2.157183 h -1.90037 v 7.118704 h 1.61275 v -2.742705 h 0.39034 0.0514 l 1.16077,2.742705 z m -3.31795,-3.862385 v -2.116094 h 0.27735 c 0.71906,0 1.01696,0.318441 1.01696,1.016958 0,0.749878 -0.26708,1.099136 -0.9656,1.099136 z"
       style="font-weight:bold;font-stretch:ultra-condensed;font-size:10.2723px;line-height:1.25;font-family:'Fira Sans Compressed';-inkscape-font-specification:'Fira Sans Compressed, Bold Ultra-Condensed';text-align:center;text-anchor:middle;stroke-width:0.646967;fill:#ffffff;fill-opacity:1"
       id="path1103" />
    <path
       d="m 157.49669,15.402016 h -2.02365 l -0.67797,4.86907 -0.74987,-4.86907 h -1.99283 l -0.43144,7.118704 h 1.51003 l 0.0616,-2.804338 c 0.0206,-0.996413 0.0206,-1.849014 -0.0103,-2.886517 l 0.83206,4.930704 h 1.51003 l 0.79096,-4.920431 c -0.0205,0.862873 -0.0103,1.849014 0.0205,2.855699 l 0.0616,2.824883 h 1.5203 z"
       style="font-weight:bold;font-stretch:ultra-condensed;font-size:10.2723px;line-height:1.25;font-family:'Fira Sans Compressed';-inkscape-font-specification:'Fira Sans Compressed, Bold Ultra-Condensed';text-align:center;text-anchor:middle;stroke-width:0.646967;fill:#ffffff;fill-opacity:1"
       id="path1105" />
    <path
       d="m 163.33135,15.402016 h -1.61275 v 4.992337 c 0,0.729334 -0.21572,1.088864 -0.77042,1.088864 -0.5547,0 -0.77042,-0.35953 -0.77042,-1.088864 v -4.992337 h -1.61275 v 5.064244 c 0,1.284037 0.77042,2.218816 2.38317,2.218816 1.61275,0 2.38317,-0.98614 2.38317,-2.218816 z"
       style="font-weight:bold;font-stretch:ultra-condensed;font-size:10.2723px;line-height:1.25;font-family:'Fira Sans Compressed';-inkscape-font-specification:'Fira Sans Compressed, Bold Ultra-Condensed';text-align:center;text-anchor:middle;stroke-width:0.646967;fill:#ffffff;fill-opacity:1"
       id="path1107" />
    <path
       d="m 168.84757,15.402016 h -1.39703 v 2.978967 c 0,1.11968 0.12326,2.05446 0.21571,2.660525 l -1.49975,-5.639492 h -1.99283 v 7.118704 h 1.38676 v -2.691343 c 0,-1.314854 -0.12326,-2.239361 -0.20544,-2.94815 l 1.49975,5.639493 h 1.99283 z"
       style="font-weight:bold;font-stretch:ultra-condensed;font-size:10.2723px;line-height:1.25;font-family:'Fira Sans Compressed';-inkscape-font-specification:'Fira Sans Compressed, Bold Ultra-Condensed';text-align:center;text-anchor:middle;stroke-width:0.646967;fill:#ffffff;fill-opacity:1"
       id="path1109" />
    <path
       d="m 171.40536,15.402016 h -1.61275 v 7.118704 h 1.61275 z"
       style="font-weight:bold;font-stretch:ultra-condensed;font-size:10.2723px;line-height:1.25;font-family:'Fira Sans Compressed';-inkscape-font-specification:'Fira Sans Compressed, Bold Ultra-Condensed';text-align:center;text-anchor:middle;stroke-width:0.646967;fill:#ffffff;fill-opacity:1"
       id="path1111" />
    <path
       d="m 174.89793,15.227387 c -1.57166,0 -2.72216,1.212131 -2.72216,3.718572 0,2.557803 1.11968,3.74939 2.70161,3.74939 0.87315,0 1.53058,-0.431437 1.96201,-0.903963 l -0.72933,-0.862873 c -0.34926,0.287624 -0.63688,0.513615 -1.08887,0.513615 -0.71906,0 -1.17104,-0.647155 -1.17104,-2.496169 0,-1.890103 0.45198,-2.516713 1.16077,-2.516713 0.39035,0 0.69852,0.184901 1.01696,0.462253 l 0.74988,-0.883418 c -0.51362,-0.49307 -1.09914,-0.780694 -1.87983,-0.780694 z"
       style="font-weight:bold;font-stretch:ultra-condensed;font-size:10.2723px;line-height:1.25;font-family:'Fira Sans Compressed';-inkscape-font-specification:'Fira Sans Compressed, Bold Ultra-Condensed';text-align:center;text-anchor:middle;stroke-width:0.646967;fill:#ffffff;fill-opacity:1"
       id="path1113" />
    <path
       d="m 178.9452,15.402016 h -1.61275 v 7.118704 h 1.61275 z"
       style="font-weight:bold;font-stretch:ultra-condensed;font-size:10.2723px;line-height:1.25;font-family:'Fira Sans Compressed';-inkscape-font-specification:'Fira Sans Compressed, Bold Ultra-Condensed';text-align:center;text-anchor:middle;stroke-width:0.646967;fill:#ffffff;fill-opacity:1"
       id="path1115" />
    <path
       d="m 181.72898,15.402016 h -1.82847 v 7.118704 h 1.61275 v -2.393446 h 0.38008 c 1.5922,0 2.5578,-0.790967 2.5578,-2.413991 0,-1.5203 -0.95533,-2.311267 -2.72216,-2.311267 z m 0.0308,3.554216 h -0.24654 v -2.403719 h 0.26708 c 0.74988,0 1.01696,0.380075 1.01696,1.16077 0,0.914235 -0.2979,1.242949 -1.0375,1.242949 z"
       style="font-weight:bold;font-stretch:ultra-condensed;font-size:10.2723px;line-height:1.25;font-family:'Fira Sans Compressed';-inkscape-font-specification:'Fira Sans Compressed, Bold Ultra-Condensed';text-align:center;text-anchor:middle;stroke-width:0.646967;fill:#ffffff;fill-opacity:1"
       id="path1117" />
    <path
       d="m 187.59443,22.52072 h 1.63329 l -1.72574,-7.118704 h -1.93119 l -1.72575,7.118704 h 1.60248 l 0.27735,-1.56139 h 1.58193 z m -1.65384,-2.72216 0.57525,-3.21523 0.58552,3.21523 z"
       style="font-weight:bold;font-stretch:ultra-condensed;font-size:10.2723px;line-height:1.25;font-family:'Fira Sans Compressed';-inkscape-font-specification:'Fira Sans Compressed, Bold Ultra-Condensed';text-align:center;text-anchor:middle;stroke-width:0.646967;fill:#ffffff;fill-opacity:1"
       id="path1119" />
    <path
       d="m 191.22054,15.402016 h -1.61275 v 7.118704 h 3.68775 l 0.16436,-1.273766 h -2.23936 z"
       style="font-weight:bold;font-stretch:ultra-condensed;font-size:10.2723px;line-height:1.25;font-family:'Fira Sans Compressed';-inkscape-font-specification:'Fira Sans Compressed, Bold Ultra-Condensed';text-align:center;text-anchor:middle;stroke-width:0.646967;fill:#ffffff;fill-opacity:1"
       id="path1121" />
    <path
       d="m 79.129484,28.242392 h -1.797652 v 7.118703 h 1.910648 c 1.592206,0 2.968694,-0.708788 2.968694,-3.595304 0,-3.030329 -1.479211,-3.523399 -3.08169,-3.523399 z m 0.205446,1.16077 c 0.729333,0 1.222404,0.380075 1.222404,2.362629 0,1.951736 -0.462254,2.424262 -1.222404,2.424262 h -0.390347 v -4.786891 z"
       style="font-weight:bold;font-stretch:ultra-condensed;font-size:10.2723px;line-height:1.25;font-family:'Fira Sans Compressed';-inkscape-font-specification:'Fira Sans Compressed, Bold Ultra-Condensed';text-align:center;text-anchor:middle;stroke-width:0.646967;fill:#ffffff;fill-opacity:1"
       id="path1123" />
    <path
       d="m 86.730984,28.242392 h -3.759662 v 7.118703 h 3.728845 v -1.171042 h -2.116094 v -1.879831 h 1.746291 v -1.129953 h -1.746291 v -1.78738 h 1.982554 z"
       style="font-weight:bold;font-stretch:ultra-condensed;font-size:10.2723px;line-height:1.25;font-family:'Fira Sans Compressed';-inkscape-font-specification:'Fira Sans Compressed, Bold Ultra-Condensed';text-align:center;text-anchor:middle;stroke-width:0.646967;fill:#ffffff;fill-opacity:1"
       id="path1125" />
    <path
       d="m 91.312416,28.067763 c -1.273765,0 -2.229089,0.821784 -2.229089,2.05446 0,1.006685 0.49307,1.612751 1.807925,2.167455 0.770422,0.308169 0.996413,0.616338 0.996413,1.11968 0,0.544432 -0.26708,0.93478 -0.852601,0.93478 -0.53416,0 -0.965596,-0.26708 -1.417578,-0.6677 l -0.770422,0.852601 c 0.523887,0.564977 1.222404,1.006686 2.311267,1.006686 1.499756,0 2.403719,-0.955324 2.403719,-2.249634 0,-1.253221 -0.606066,-1.766836 -1.715475,-2.259906 -0.873145,-0.369803 -1.099136,-0.595793 -1.099136,-1.02723 0,-0.441709 0.256808,-0.749878 0.739606,-0.749878 0.431437,0 0.821784,0.195174 1.222404,0.564977 l 0.708788,-0.842329 c -0.544432,-0.575249 -1.191586,-0.903962 -2.105821,-0.903962 z"
       style="font-weight:bold;font-stretch:ultra-condensed;font-size:10.2723px;line-height:1.25;font-family:'Fira Sans Compressed';-inkscape-font-specification:'Fira Sans Compressed, Bold Ultra-Condensed';text-align:center;text-anchor:middle;stroke-width:0.646967;fill:#ffffff;fill-opacity:1"
       id="path1127" />
    <path
       d="m 97.342237,35.361095 h 1.633296 l -1.725746,-7.118703 h -1.931193 l -1.725746,7.118703 h 1.602479 l 0.277352,-1.561389 h 1.581934 z m -1.65384,-2.722159 0.575249,-3.21523 0.585521,3.21523 z"
       style="font-weight:bold;font-stretch:ultra-condensed;font-size:10.2723px;line-height:1.25;font-family:'Fira Sans Compressed';-inkscape-font-specification:'Fira Sans Compressed, Bold Ultra-Condensed';text-align:center;text-anchor:middle;stroke-width:0.646967;fill:#ffffff;fill-opacity:1"
       id="path1129" />
    <path
       d="m 102.18047,25.653772 -1.8901,1.232676 0.39035,0.76015 2.08528,-0.873145 z m 1.73602,2.58862 h -1.61275 v 4.992337 c 0,0.729334 -0.21572,1.088864 -0.77042,1.088864 -0.5547,0 -0.77042,-0.35953 -0.77042,-1.088864 v -4.992337 h -1.612754 v 5.064243 c 0,1.284038 0.770423,2.218817 2.383174,2.218817 1.61275,0 2.38317,-0.986141 2.38317,-2.218817 z"
       style="font-weight:bold;font-stretch:ultra-condensed;font-size:10.2723px;line-height:1.25;font-family:'Fira Sans Compressed';-inkscape-font-specification:'Fira Sans Compressed, Bold Ultra-Condensed';text-align:center;text-anchor:middle;stroke-width:0.646967;fill:#ffffff;fill-opacity:1"
       id="path1131" />
    <path
       d="m 106.55647,28.242392 h -1.79766 v 7.118703 h 1.91065 c 1.59221,0 2.9687,-0.708788 2.9687,-3.595304 0,-3.030329 -1.47921,-3.523399 -3.08169,-3.523399 z m 0.20544,1.16077 c 0.72934,0 1.22241,0.380075 1.22241,2.362629 0,1.951736 -0.46226,2.424262 -1.22241,2.424262 h -0.39034 v -4.786891 z"
       style="font-weight:bold;font-stretch:ultra-condensed;font-size:10.2723px;line-height:1.25;font-family:'Fira Sans Compressed';-inkscape-font-specification:'Fira Sans Compressed, Bold Ultra-Condensed';text-align:center;text-anchor:middle;stroke-width:0.646967;fill:#ffffff;fill-opacity:1"
       id="path1133" />
    <path
       d="m 114.15797,28.242392 h -3.75966 v 7.118703 h 3.72884 v -1.171042 h -2.11609 v -1.879831 h 1.74629 v -1.129953 h -1.74629 v -1.78738 h 1.98255 z"
       style="font-weight:bold;font-stretch:ultra-condensed;font-size:10.2723px;line-height:1.25;font-family:'Fira Sans Compressed';-inkscape-font-specification:'Fira Sans Compressed, Bold Ultra-Condensed';text-align:center;text-anchor:middle;stroke-width:0.646967;fill:#ffffff;fill-opacity:1"
       id="path1135" />
    <path
       d="m 119.92071,35.361095 h 1.6333 l -1.72575,-7.118703 h -1.93119 l -1.72575,7.118703 h 1.60248 l 0.27735,-1.561389 h 1.58194 z m -1.65384,-2.722159 0.57525,-3.21523 0.58552,3.21523 z"
       style="font-weight:bold;font-stretch:ultra-condensed;font-size:10.2723px;line-height:1.25;font-family:'Fira Sans Compressed';-inkscape-font-specification:'Fira Sans Compressed, Bold Ultra-Condensed';text-align:center;text-anchor:middle;stroke-width:0.646967;fill:#ffffff;fill-opacity:1"
       id="path1137" />
    <path
       d="m 123.54682,28.242392 h -1.61275 v 7.118703 h 3.68776 l 0.16435,-1.273765 h -2.23936 z"
       style="font-weight:bold;font-stretch:ultra-condensed;font-size:10.2723px;line-height:1.25;font-family:'Fira Sans Compressed';-inkscape-font-specification:'Fira Sans Compressed, Bold Ultra-Condensed';text-align:center;text-anchor:middle;stroke-width:0.646967;fill:#ffffff;fill-opacity:1"
       id="path1139" />
    <path
       d="m 129.515,28.242392 h -4.59172 v 1.232676 h 1.44839 v 5.886027 h 1.61275 v -5.886027 h 1.36622 z"
       style="font-weight:bold;font-stretch:ultra-condensed;font-size:10.2723px;line-height:1.25;font-family:'Fira Sans Compressed';-inkscape-font-specification:'Fira Sans Compressed, Bold Ultra-Condensed';text-align:center;text-anchor:middle;stroke-width:0.646967;fill:#ffffff;fill-opacity:1"
       id="path1141" />
    <path
       d="m 132.11386,28.067763 c -1.71548,0 -2.69134,1.242948 -2.69134,3.728844 0,2.537258 0.97586,3.739118 2.69134,3.739118 1.72574,0 2.70161,-1.242949 2.70161,-3.739118 0,-2.537258 -0.97587,-3.728844 -2.70161,-3.728844 z m 0,1.181314 c 0.70879,0 1.02723,0.657427 1.02723,2.54753 0,1.941465 -0.30817,2.557803 -1.02723,2.557803 -0.69852,0 -1.01696,-0.616338 -1.01696,-2.557803 0,-1.890103 0.31844,-2.54753 1.01696,-2.54753 z"
       style="font-weight:bold;font-stretch:ultra-condensed;font-size:10.2723px;line-height:1.25;font-family:'Fira Sans Compressed';-inkscape-font-specification:'Fira Sans Compressed, Bold Ultra-Condensed';text-align:center;text-anchor:middle;stroke-width:0.646967;fill:#ffffff;fill-opacity:1"
       id="path1143" />
    <path
       d="m 139.27364,28.242392 h -1.79765 v 7.118703 h 1.91064 c 1.59221,0 2.9687,-0.708788 2.9687,-3.595304 0,-3.030329 -1.47921,-3.523399 -3.08169,-3.523399 z m 0.20544,1.16077 c 0.72934,0 1.22241,0.380075 1.22241,2.362629 0,1.951736 -0.46226,2.424262 -1.22241,2.424262 h -0.39034 v -4.786891 z"
       style="font-weight:bold;font-stretch:ultra-condensed;font-size:10.2723px;line-height:1.25;font-family:'Fira Sans Compressed';-inkscape-font-specification:'Fira Sans Compressed, Bold Ultra-Condensed';text-align:center;text-anchor:middle;stroke-width:0.646967;fill:#ffffff;fill-opacity:1"
       id="path1145" />
    <path
       d="m 146.19717,35.361095 h 1.63329 l -1.72574,-7.118703 h -1.93119 l -1.72575,7.118703 h 1.60248 l 0.27735,-1.561389 h 1.58193 z m -1.65384,-2.722159 0.57525,-3.21523 0.58552,3.21523 z"
       style="font-weight:bold;font-stretch:ultra-condensed;font-size:10.2723px;line-height:1.25;font-family:'Fira Sans Compressed';-inkscape-font-specification:'Fira Sans Compressed, Bold Ultra-Condensed';text-align:center;text-anchor:middle;stroke-width:0.646967;fill:#ffffff;fill-opacity:1"
       id="path1147" />
    <path
       d="m 150.21362,28.067763 c -1.27376,0 -2.22909,0.821784 -2.22909,2.05446 0,1.006685 0.49307,1.612751 1.80793,2.167455 0.77042,0.308169 0.99641,0.616338 0.99641,1.11968 0,0.544432 -0.26708,0.93478 -0.8526,0.93478 -0.53416,0 -0.9656,-0.26708 -1.41758,-0.6677 l -0.77042,0.852601 c 0.52389,0.564977 1.2224,1.006686 2.31127,1.006686 1.49975,0 2.40372,-0.955324 2.40372,-2.249634 0,-1.253221 -0.60607,-1.766836 -1.71548,-2.259906 -0.87314,-0.369803 -1.09913,-0.595793 -1.09913,-1.02723 0,-0.441709 0.2568,-0.749878 0.7396,-0.749878 0.43144,0 0.82179,0.195174 1.22241,0.564977 l 0.70878,-0.842329 c -0.54443,-0.575249 -1.19158,-0.903962 -2.10582,-0.903962 z"
       style="font-weight:bold;font-stretch:ultra-condensed;font-size:10.2723px;line-height:1.25;font-family:'Fira Sans Compressed';-inkscape-font-specification:'Fira Sans Compressed, Bold Ultra-Condensed';text-align:center;text-anchor:middle;stroke-width:0.646967;fill:#ffffff;fill-opacity:1"
       id="path1149" />
    <path
       d="m 159.64358,28.242392 h -1.57166 l -0.9656,5.844938 -1.04777,-5.844938 h -1.61275 l 1.60247,7.118703 h 2.07501 z"
       style="font-weight:bold;font-stretch:ultra-condensed;font-size:10.2723px;line-height:1.25;font-family:'Fira Sans Compressed';-inkscape-font-specification:'Fira Sans Compressed, Bold Ultra-Condensed';text-align:center;text-anchor:middle;stroke-width:0.646967;fill:#ffffff;fill-opacity:1"
       id="path1151" />
    <path
       d="m 163.7833,28.242392 h -3.75966 v 7.118703 h 3.72885 v -1.171042 h -2.1161 v -1.879831 h 1.74629 v -1.129953 h -1.74629 v -1.78738 h 1.98256 z"
       style="font-weight:bold;font-stretch:ultra-condensed;font-size:10.2723px;line-height:1.25;font-family:'Fira Sans Compressed';-inkscape-font-specification:'Fira Sans Compressed, Bold Ultra-Condensed';text-align:center;text-anchor:middle;stroke-width:0.646967;fill:#ffffff;fill-opacity:1"
       id="path1153" />
    <path
       d="m 169.39197,35.361095 -1.45867,-3.050873 c 0.77042,-0.390347 1.07859,-1.11968 1.07859,-1.910647 0,-1.386761 -0.82178,-2.157183 -2.65025,-2.157183 h -1.90038 v 7.118703 h 1.61276 v -2.742704 h 0.39034 0.0514 l 1.16077,2.742704 z m -3.31795,-3.862384 v -2.116094 h 0.27735 c 0.71906,0 1.01696,0.318441 1.01696,1.016958 0,0.749878 -0.26708,1.099136 -0.9656,1.099136 z"
       style="font-weight:bold;font-stretch:ultra-condensed;font-size:10.2723px;line-height:1.25;font-family:'Fira Sans Compressed';-inkscape-font-specification:'Fira Sans Compressed, Bold Ultra-Condensed';text-align:center;text-anchor:middle;stroke-width:0.646967;fill:#ffffff;fill-opacity:1"
       id="path1155" />
    <path
       d="m 173.73713,28.242392 h -4.59171 v 1.232676 h 1.44839 v 5.886027 h 1.61275 v -5.886027 h 1.36622 z"
       style="font-weight:bold;font-stretch:ultra-condensed;font-size:10.2723px;line-height:1.25;font-family:'Fira Sans Compressed';-inkscape-font-specification:'Fira Sans Compressed, Bold Ultra-Condensed';text-align:center;text-anchor:middle;stroke-width:0.646967;fill:#ffffff;fill-opacity:1"
       id="path1157" />
    <path
       d="m 177.94876,28.242392 h -3.75966 v 7.118703 h 3.72885 v -1.171042 h -2.1161 v -1.879831 h 1.74629 v -1.129953 h -1.74629 v -1.78738 h 1.98256 z"
       style="font-weight:bold;font-stretch:ultra-condensed;font-size:10.2723px;line-height:1.25;font-family:'Fira Sans Compressed';-inkscape-font-specification:'Fira Sans Compressed, Bold Ultra-Condensed';text-align:center;text-anchor:middle;stroke-width:0.646967;fill:#ffffff;fill-opacity:1"
       id="path1159" />
    <path
       d="m 183.30063,28.242392 h -1.39704 v 2.978967 c 0,1.11968 0.12327,2.05446 0.21572,2.660525 l -1.49975,-5.639492 h -1.99283 v 7.118703 h 1.38676 v -2.691342 c 0,-1.314854 -0.12327,-2.239361 -0.20544,-2.94815 l 1.49975,5.639492 h 1.99283 z"
       style="font-weight:bold;font-stretch:ultra-condensed;font-size:10.2723px;line-height:1.25;font-family:'Fira Sans Compressed';-inkscape-font-specification:'Fira Sans Compressed, Bold Ultra-Condensed';text-align:center;text-anchor:middle;stroke-width:0.646967;fill:#ffffff;fill-opacity:1"
       id="path1161" />
    <path
       d="m 188.41622,28.242392 h -4.59172 v 1.232676 h 1.4484 v 5.886027 h 1.61275 v -5.886027 h 1.36621 z"
       style="font-weight:bold;font-stretch:ultra-condensed;font-size:10.2723px;line-height:1.25;font-family:'Fira Sans Compressed';-inkscape-font-specification:'Fira Sans Compressed, Bold Ultra-Condensed';text-align:center;text-anchor:middle;stroke-width:0.646967;fill:#ffffff;fill-opacity:1"
       id="path1163" />
    <path
       d="m 192.62785,28.242392 h -3.75966 v 7.118703 h 3.72884 v -1.171042 h -2.11609 v -1.879831 h 1.74629 v -1.129953 h -1.74629 v -1.78738 h 1.98255 z"
       style="font-weight:bold;font-stretch:ultra-condensed;font-size:10.2723px;line-height:1.25;font-family:'Fira Sans Compressed';-inkscape-font-specification:'Fira Sans Compressed, Bold Ultra-Condensed';text-align:center;text-anchor:middle;stroke-width:0.646967;fill:#ffffff;fill-opacity:1"
       id="path1165" />
    <path
       d="m 195.20618,28.067763 c -1.27376,0 -2.22908,0.821784 -2.22908,2.05446 0,1.006685 0.49307,1.612751 1.80792,2.167455 0.77042,0.308169 0.99641,0.616338 0.99641,1.11968 0,0.544432 -0.26708,0.93478 -0.8526,0.93478 -0.53416,0 -0.96559,-0.26708 -1.41758,-0.6677 l -0.77042,0.852601 c 0.52389,0.564977 1.22241,1.006686 2.31127,1.006686 1.49976,0 2.40372,-0.955324 2.40372,-2.249634 0,-1.253221 -0.60607,-1.766836 -1.71548,-2.259906 -0.87314,-0.369803 -1.09913,-0.595793 -1.09913,-1.02723 0,-0.441709 0.25681,-0.749878 0.7396,-0.749878 0.43144,0 0.82179,0.195174 1.22241,0.564977 l 0.70879,-0.842329 c -0.54444,-0.575249 -1.19159,-0.903962 -2.10583,-0.903962 z"
       style="font-weight:bold;font-stretch:ultra-condensed;font-size:10.2723px;line-height:1.25;font-family:'Fira Sans Compressed';-inkscape-font-specification:'Fira Sans Compressed, Bold Ultra-Condensed';text-align:center;text-anchor:middle;stroke-width:0.646967;fill:#ffffff;fill-opacity:1"
       id="path1167" />
    <g
       id="path1948">
      <path
         style="color:#000000;fill:#ffffff;stroke-width:1.81738;-inkscape-stroke:none"
         d="M 76.753904,43.853702 H 197.46577"
         id="path16094" />
      <path
         style="color:#000000;fill:#ffffff;-inkscape-stroke:none"
         d="m 76.753906,42.945312 v 1.816407 H 197.46484 v -1.816407 z"
         id="path16096" />
    </g>
  </g>
</svg>
