<?xml version="1.0" encoding="UTF-8" standalone="no"?>
<!-- Created with Inkscape (http://www.inkscape.org/) -->

<svg
   width="50mm"
   height="50mm"
   viewBox="0 0 50 50"
   version="1.1"
   id="svg1056"
   sodipodi:docname="logo_cisalv_path_branco_quadrado.svg"
   inkscape:version="1.1.2 (0a00cf5339, 2022-02-04)"
   xmlns:inkscape="http://www.inkscape.org/namespaces/inkscape"
   xmlns:sodipodi="http://sodipodi.sourceforge.net/DTD/sodipodi-0.dtd"
   xmlns="http://www.w3.org/2000/svg"
   xmlns:svg="http://www.w3.org/2000/svg">
  <sodipodi:namedview
     id="namedview2376"
     pagecolor="#ffffff"
     bordercolor="#666666"
     borderopacity="1.0"
     inkscape:pageshadow="2"
     inkscape:pageopacity="0.0"
     inkscape:pagecheckerboard="0"
     inkscape:document-units="mm"
     showgrid="false"
     inkscape:zoom="0.63981199"
     inkscape:cx="502.49136"
     inkscape:cy="151.60704"
     inkscape:window-width="1536"
     inkscape:window-height="795"
     inkscape:window-x="0"
     inkscape:window-y="32"
     inkscape:window-maximized="0"
     inkscape:current-layer="layer1" />
  <defs
     id="defs1053" />
  <g
     id="layer1">
    <circle
       style="fill:#ffffff;fill-opacity:1;stroke:#000000;stroke-width:0.139588;stroke-miterlimit:4;stroke-dasharray:none;stroke-opacity:1"
       id="path977-2-6-1-7"
       cx="24.997467"
       cy="21.311752"
       r="1.6639401" />
    <path
       style="fill:#ffffff;stroke:#000000;stroke-width:0.139588;stroke-linecap:butt;stroke-linejoin:miter;stroke-miterlimit:4;stroke-dasharray:none;stroke-opacity:1"
       d="m 22.369135,27.609219 c 0,0 -0.286423,1.05777 -1.163193,1.532676 -0.87677,0.474907 -2.129531,0.787522 -2.002124,1.302525 0.127393,0.515003 0.81335,1.721233 4.158968,2.296248 3.345618,0.575002 5.493799,2.016872 5.008526,4.43769 -0.218431,1.089683 -0.761897,1.841972 -2.398468,2.655744 -1.14201,0.567838 -1.812141,0.885578 -2.290469,1.24324 -0.733041,0.548095 -0.470612,2.174417 -0.470612,2.174417 0,0 -0.923675,-1.241221 -0.02184,-2.485751 1.950279,-1.874483 3.195993,-1.519413 3.953014,-3.158634 0.815228,-1.765304 -0.397365,-2.908988 -4.151732,-3.716164 -3.754368,-0.807192 -6.166915,-0.848904 -5.735468,-4.309088 0.431462,-3.460184 5.811758,-3.428329 5.113398,-1.972903 z"
       id="path1193-2-1-7-7"
       sodipodi:nodetypes="csccscccccccsc" />
    <path
       style="fill:#ffffff;stroke:#000000;stroke-width:0.139588;stroke-linecap:butt;stroke-linejoin:miter;stroke-miterlimit:4;stroke-dasharray:none;stroke-opacity:1"
       d="m 27.532251,27.622191 c 0,0 0.286423,1.05777 1.163193,1.532677 0.87677,0.474906 2.129531,0.787521 2.002109,1.302524 -0.127393,0.515003 -0.81335,1.721233 -4.158953,2.296249 -3.345618,0.575001 -5.493814,2.016872 -5.008527,4.437689 0.218432,1.089684 0.761898,1.841972 2.398454,2.655744 1.14201,0.567838 1.812141,0.885593 2.290484,1.24324 0.733041,0.548096 0.470611,2.174417 0.470611,2.174417 0,0 1.167372,-1.38474 0.02184,-2.485737 -1.950278,-1.874497 -3.196007,-1.519413 -3.953028,-3.158648 -0.815228,-1.765304 0.397365,-2.908987 4.151732,-3.716164 3.754368,-0.807192 6.166915,-0.848904 5.735468,-4.309088 -0.431448,-3.460184 -5.811758,-3.428328 -5.113397,-1.972903 z"
       id="path1193-3-8-5-85-6" />
    <circle
       style="fill:#000000;fill-opacity:1;stroke-width:0.139588;stroke-miterlimit:4;stroke-dasharray:none"
       id="path3413-97-5-7-4"
       cx="20.710304"
       cy="27.299696"
       r="0.23645344" />
    <path
       style="fill:#ffffff;fill-opacity:1;stroke:#000000;stroke-width:0.14;stroke-linecap:butt;stroke-linejoin:miter;stroke-miterlimit:4;stroke-dasharray:none;stroke-opacity:1"
       d="m 23.57867,23.519742 h 2.85522 l -1.309761,21.69997 H 24.54808 Z"
       id="path3636-6-7-18-3" />
    <path
       style="fill:#ffffff;stroke:#000000;stroke-width:0.139588;stroke-linecap:butt;stroke-linejoin:miter;stroke-miterlimit:4;stroke-dasharray:none;stroke-opacity:1"
       d="m 28.371312,37.178372 c -0.218431,1.089684 -0.673753,1.89352 -2.310324,2.707278 -1.14201,0.567838 -1.933188,0.873337 -2.411516,1.230984 -0.733041,0.548095 -0.437709,2.135125 -0.437709,2.135125 0,0 -1.048158,-1.227292 0.01437,-2.525111 1.258146,-1.45087 3.161218,-1.358819 4.058273,-3.496754"
       id="path1193-2-1-7-8-0"
       sodipodi:nodetypes="cssccc" />
    <path
       style="fill:#ffffff;stroke:#000000;stroke-width:0.139588;stroke-linecap:butt;stroke-linejoin:miter;stroke-miterlimit:4;stroke-dasharray:none;stroke-opacity:1"
       d="m 22.564498,37.068844 c -0.284122,-1.18154 0.5913,-2.357485 4.345682,-3.164662 3.754353,-0.807192 6.166915,-0.848904 5.735467,-4.309088 -0.431462,-3.460184 -5.811758,-3.428328 -5.113396,-1.972903 h 1.4e-5 c 0,0 0.286424,1.05777 1.163193,1.532677 0.87677,0.474906 2.129532,0.787521 2.002124,1.302524 -0.127393,0.515003 -0.81335,1.721233 -4.158968,2.296249 -3.345603,0.575001 -5.488904,2.051069 -5.003631,4.471886"
       id="path1193-3-8-5-85-9-3"
       sodipodi:nodetypes="cccccsccc" />
    <circle
       style="fill:#000000;fill-opacity:1;stroke-width:0.139588;stroke-miterlimit:4;stroke-dasharray:none"
       id="path3413-6-3-4-4-0"
       cx="29.178238"
       cy="27.232473"
       r="0.23645344" />
    <path
       style="fill:#fffffe;fill-opacity:1;stroke:#000000;stroke-width:0.139588;stroke-linecap:butt;stroke-linejoin:miter;stroke-miterlimit:4;stroke-dasharray:none;stroke-opacity:1"
       d="m 5.595575,21.040368 h 14.869347 c 0,0 0.143845,0.919923 0.848933,1.379019 0.705073,0.45908 1.463229,0.66157 1.463229,0.66157 v 2.302436 h -7.744187 c -1.399591,0 -2.121015,-0.09172 -2.121015,-1.136288 -1.605299,0 -2.095099,-0.05329 -2.095099,-1.088053 -1.2027651,0 -2.102917,-0.02359 -2.102917,-0.940568 0,0 -3.118291,0.08808 -3.118291,-1.178116 z"
       id="path3909-1-6-5-9" />
    <path
       style="fill:none;stroke:#000000;stroke-width:0.139588;stroke-linecap:butt;stroke-linejoin:miter;stroke-miterlimit:4;stroke-dasharray:none;stroke-opacity:1"
       d="m 8.713866,22.218484 h 8.348817"
       id="path8502-2-5-97-2" />
    <path
       style="fill:none;stroke:#000000;stroke-width:0.139588;stroke-linecap:butt;stroke-linejoin:miter;stroke-miterlimit:4;stroke-dasharray:none;stroke-opacity:1"
       d="M 10.816783,23.159052 H 19.1656"
       id="path8502-7-93-6-5-5" />
    <path
       style="fill:none;stroke:#000000;stroke-width:0.139588;stroke-linecap:butt;stroke-linejoin:miter;stroke-miterlimit:4;stroke-dasharray:none;stroke-opacity:1"
       d="m 12.911882,24.247105 h 8.348802"
       id="path8502-7-5-1-9-3-4" />
    <path
       style="fill:#ffffff;fill-opacity:1;stroke:#000000;stroke-width:0.14;stroke-linecap:butt;stroke-linejoin:miter;stroke-miterlimit:4;stroke-dasharray:none;stroke-opacity:1"
       d="M 44.66973,21.135774 H 29.8004 c 0,0 -0.143845,0.919924 -0.848947,1.379004 -0.705059,0.459096 -1.463215,0.661585 -1.463215,0.661585 v 2.302436 h 7.744172 c 1.399591,0 2.121029,-0.09172 2.121029,-1.136287 1.605283,0 2.095084,-0.05329 2.095084,-1.088053 1.202779,0 2.102917,-0.02359 2.102917,-0.940568 0,0 3.11829,0.08808 3.11829,-1.178117 z"
       id="path3909-3-9-3-8-0" />
    <path
       style="fill:none;stroke:#000000;stroke-width:0.139588;stroke-linecap:butt;stroke-linejoin:miter;stroke-miterlimit:4;stroke-dasharray:none;stroke-opacity:1"
       d="M 41.55144,22.313891 H 33.202624"
       id="path8502-5-4-7-83-5" />
    <path
       style="fill:none;stroke:#000000;stroke-width:0.139588;stroke-linecap:butt;stroke-linejoin:miter;stroke-miterlimit:4;stroke-dasharray:none;stroke-opacity:1"
       d="M 39.448523,23.254459 H 31.099707"
       id="path8502-7-6-7-4-1-9" />
    <path
       style="fill:none;stroke:#000000;stroke-width:0.139588;stroke-linecap:butt;stroke-linejoin:miter;stroke-miterlimit:4;stroke-dasharray:none;stroke-opacity:1"
       d="M 37.353439,24.342512 H 29.004623"
       id="path8502-7-5-2-8-5-8-4" />
    <path
       style="fill:#ffffff;fill-opacity:1;stroke:#000000;stroke-width:0.139588;stroke-linecap:butt;stroke-linejoin:miter;stroke-miterlimit:4;stroke-dasharray:none;stroke-opacity:1"
       d="M 3.2578619,6.4746232 V 18.01392 H 7.627662 v -7.800935 h 8.85935 V 6.4365242 Z"
       id="path9748-4-2-9-6" />
    <path
       style="fill:#fffffd;fill-opacity:1;stroke:#000000;stroke-width:0.139588;stroke-linecap:butt;stroke-linejoin:miter;stroke-miterlimit:4;stroke-dasharray:none;stroke-opacity:1"
       d="M 3.1899289,40.722155 V 29.182865 H 7.559743 v 7.800923 h 8.859351 v 3.776469 z"
       id="path9748-0-0-4-3-2-0" />
    <path
       style="fill:#ffffff;fill-opacity:1;stroke:#000000;stroke-width:0.139588;stroke-linecap:butt;stroke-linejoin:miter;stroke-miterlimit:4;stroke-dasharray:none;stroke-opacity:1"
       d="M 47.040391,6.4513722 V 17.990669 H 42.670577 V 10.189734 H 33.811228 V 6.4132732 Z"
       id="path9748-0-0-4-3-2" />
    <path
       style="fill:#ffffff;fill-opacity:1;stroke:#000000;stroke-width:0.139588;stroke-linecap:butt;stroke-linejoin:miter;stroke-miterlimit:4;stroke-dasharray:none;stroke-opacity:1"
       d="m 46.972457,40.698904 v -11.53929 h -4.369799 v 7.800923 h -8.859349 v 3.776469 z"
       id="path9748-4-2-9-6-8" />
    <path
       d="m 9.4423059,15.454199 c -0.01165,-1.958862 1.7784071,-3.178999 3.0875721,-3.224957 0.342476,-0.0092 0.715047,0.04458 1.117696,0.161341 0.226789,0.07068 0.340176,0.262762 0.340176,0.576226 v 0.622317 c 0,0.17825 -0.03815,0.308857 -0.114581,0.391833 -0.07644,0.0799 -0.18512,0.10602 -0.326286,0.07836 -0.83484,-0.227942 -2.272155,0.06453 -2.300138,1.32762 0.02315,1.533287 1.644944,1.449496 2.300138,1.32301 0.138895,-0.02763 0.246458,-0.0014 0.322807,0.07837 0.07877,0.0799 0.118075,0.210514 0.118075,0.391835 v 0.622321 c 0,0.316536 -0.133071,0.513221 -0.399184,0.59005 -0.39572,0.110635 -0.761346,0.15827 -1.096892,0.142913 -1.37503,-0.06977 -3.0759091,-1.427952 -3.0493831,-3.081232 z"
       id="path2524-6-4-3-4"
       style="font-size:15.3263px;line-height:1.25;font-family:ARLON;-inkscape-font-specification:ARLON;fill:#fffffd;fill-opacity:1;stroke:#000000;stroke-width:0.14;stroke-miterlimit:4;stroke-dasharray:none;stroke-opacity:1" />
    <path
       d="m 15.692648,18.432484 q -0.240504,0 -0.369659,-0.133683 -0.12914,-0.133682 -0.12914,-0.387222 v -5.098424 q 0,-0.248927 0.12914,-0.382611 0.129141,-0.133683 0.369659,-0.133683 h 0.953103 q 0.240518,0 0.369659,0.133683 0.133653,0.133682 0.133653,0.382611 v 5.098424 q 0,0.248929 -0.12914,0.387222 -0.12914,0.133683 -0.374113,0.133683 z"
       id="path2521-1-4-8-7"
       style="font-size:15.3263px;line-height:1.25;font-family:ARLON;-inkscape-font-specification:ARLON;fill:#fffffd;fill-opacity:1;stroke:#000000;stroke-width:0.14;stroke-miterlimit:4;stroke-dasharray:none;stroke-opacity:1" />
    <path
       d="m 18.737763,18.326458 q -0.440925,-0.10142 -0.44538,-0.567004 v -0.354955 q 0,-0.267366 0.142534,-0.387218 0.146961,-0.119851 0.405285,-0.07837 0.512178,0.07837 0.957559,0.0968 0.445381,0.01383 0.788323,-0.08297 0.347397,-0.0968 0.347397,-0.322681 0,-0.115251 -0.08459,-0.202832 -0.08459,-0.0922 -0.298406,-0.184391 l -0.583444,-0.295025 q -0.899672,-0.447153 -1.26933,-0.875862 -0.369658,-0.43332 -0.369658,-1.060254 0,-0.61771 0.311756,-1.032589 0.311771,-0.414881 0.846225,-0.590054 0.534454,-0.175171 1.202532,-0.175171 0.672519,-0.0047 1.438566,0.165953 0.440925,0.10142 0.44538,0.571614 v 0.35495 q 0,0.262762 -0.142534,0.387223 -0.142535,0.124466 -0.400844,0.08297 -0.342942,-0.04611 -0.636893,-0.06454 -0.289495,-0.01843 -0.556729,-0.0047 -0.26722,0.0092 -0.41865,0.08297 -0.15143,0.07376 -0.15143,0.202831 0,0.110635 0.08459,0.207438 0.0891,0.0922 0.307315,0.193614 l 0.565625,0.276584 q 0.904127,0.442543 1.273785,0.87125 0.374128,0.428714 0.374128,1.0833 0,0.534735 -0.231608,0.921957 -0.231593,0.387224 -0.627982,0.603884 -0.391934,0.212053 -0.926388,0.299635 -0.534453,0.0922 -1.126809,0.05532 -0.587901,-0.03689 -1.220338,-0.17978 z"
       id="path2518-06-3-6-7"
       style="font-size:15.3263px;line-height:1.25;font-family:ARLON;-inkscape-font-specification:ARLON;fill:#fffffd;fill-opacity:1;stroke:#000000;stroke-width:0.14;stroke-miterlimit:4;stroke-dasharray:none;stroke-opacity:1" />
    <path
       id="path6298-3-0-0-5"
       style="font-size:15.3263px;line-height:1.25;font-family:ARLON;-inkscape-font-specification:ARLON;fill:#fffffd;fill-opacity:1;stroke:#000000;stroke-width:0.14;stroke-miterlimit:4;stroke-dasharray:none;stroke-opacity:1"
       d="m 26.63734,12.209201 c -0.831782,0.02085 -2.352898,0.739741 -2.688342,1.872016 l -0.08109,3.668624 c -0.04746,0.181316 -0.03276,0.32417 0.0444,0.428658 0.08022,0.101419 0.209231,0.15503 0.387363,0.152063 l 1.335719,-0.0222 c 0.299847,-0.0051 0.358957,-0.02024 0.424285,-0.324463 -0.02519,-1.485863 -0.04411,-2.633172 -0.04936,-3.56873 0.0029,-0.26366 0.335415,-0.600352 0.627007,-0.610844 0.292086,-0.01048 0.658483,0.216106 0.670422,0.565151 0,0 0.0131,0.167292 0.0087,0.648761 -4.66e-4,0.09752 0.0058,0.143597 -0.03858,0.183689 -0.03028,0.02763 -0.06537,0.02843 -0.156817,0.02308 -0.148183,-0.0086 -0.494416,-0.01489 -0.496294,0.06304 -0.0058,0.256377 -0.0044,0.485032 0.01616,1.032837 0.0015,0.04675 0.07542,0.04151 0.269025,0.04197 0.185484,4.66e-4 0.267205,-0.0028 0.26869,0.04746 0.0044,0.146951 0.07017,1.633325 0.07017,1.633325 0.06231,0.304246 0.117348,0.440102 0.417092,0.431472 l 1.480278,-0.04257 c 0.178074,-0.0051 0.305773,-0.05065 0.38298,-0.152064 0.07716,-0.104491 0.09187,-0.247654 0.04441,-0.428974 l -0.01747,-3.48527 c -0.118803,-1.399739 -1.650781,-1.807943 -2.161853,-2.069446 -0.207847,-0.05838 -0.460274,-0.08762 -0.757195,-0.08762 z" />
    <path
       d="m 32.285918,18.432484 c -0.501797,0 -0.874425,-0.10142 -1.117899,-0.304247 -0.240504,-0.202831 -0.360763,-0.563932 -0.360763,-1.083298 v -4.231785 c 0,-0.165952 0.0431,-0.293489 0.129141,-0.382612 0.0891,-0.08912 0.213787,-0.133682 0.374127,-0.133682 h 0.935298 c 0.160341,0 0.283555,0.04458 0.369658,0.133682 0.08604,0.08912 0.129141,0.21666 0.129141,0.382612 v 3.650953 c 0,0.09219 0.02082,0.158264 0.06231,0.198219 0.04149,0.03689 0.124772,0.05531 0.249414,0.05531 h 1.232961 c 0.160325,0 0.283555,0.04611 0.369672,0.138298 0.0891,0.08912 0.133654,0.216659 0.133654,0.382611 v 0.67303 c 0,0.165952 -0.04455,0.295025 -0.133654,0.387222 -0.08604,0.08912 -0.209347,0.133683 -0.369672,0.133683 z"
       id="path2512-2-7-4-4"
       style="font-size:15.3263px;line-height:1.25;font-family:ARLON;-inkscape-font-specification:ARLON;fill:#fffffd;fill-opacity:1;stroke:#000000;stroke-width:0.14;stroke-miterlimit:4;stroke-dasharray:none;stroke-opacity:1" />
    <path
       d="m 38.938805,12.753224 q 0.09798,-0.456366 0.547819,-0.456366 h 1.037737 q 0.267219,0 0.383023,0.152123 0.115746,0.152119 0.04455,0.428709 l -1.006565,3.770804 q -0.146961,0.553179 -0.329577,0.912739 -0.182601,0.354955 -0.440911,0.571615 -0.258324,0.21666 -0.570094,0.299636 -0.311771,0.08297 -0.757137,0.08297 -0.440926,0 -0.752696,-0.08297 -0.311757,-0.08297 -0.570081,-0.299636 -0.253869,-0.21666 -0.436485,-0.571615 -0.182587,-0.35956 -0.325121,-0.912739 L 34.752261,12.87769 q -0.07119,-0.271979 0.04455,-0.424102 0.115746,-0.15673 0.387493,-0.15673 h 1.033267 q 0.449836,0 0.547819,0.456366 l 0.770517,3.692442 q 0.04892,0.202828 0.111378,0.281197 0.06683,0.07376 0.200422,0.07376 0.138021,0 0.204863,-0.07376 0.06683,-0.07837 0.115745,-0.281197 z"
       id="path2509-0-8-8-8"
       style="font-size:15.3263px;line-height:1.25;font-family:ARLON;-inkscape-font-specification:ARLON;fill:#fffffd;fill-opacity:1;stroke:#000000;stroke-width:0.14;stroke-miterlimit:4;stroke-dasharray:none;stroke-opacity:1" />
  </g>
</svg>
